<svg version="1.2" xmlns="http://www.w3.org/2000/svg" viewBox="0 0 5000 5000" width="5000" height="5000">
	<title>jok2</title>
	<style>
		.s0 { display: none;fill: #ffffff } 
		.s1 { fill: #000000 } 
	</style>
	<g id="Background">
		<path id="Path 0" class="s0" d="m-32 2393v2516h5032v-5032h-5032z"/>
		<path id="Path 1" fill-rule="evenodd" class="s1" d="m852.3 710.9c76.8 37.4 166.9 81 200.1 96.9 57.7 27.7 74 39.6 679.3 514.2l376.3 405.9c207 223.3 376.3 407.1 376.2 408.5 0 1.4-3.2 7-7 12.5-6.8 9.7-11.4 7.2-117.1-62.5-60.6-40-206.3-135.2-323.9-211.7-117.7-76.4-304.5-197.1-415.2-268.1-110.7-71.1-284.9-181.9-573.1-363.4l-175.2-286.8c-96.3-157.8-175.5-288.9-176-291.5-0.5-2.5 2.9-8.6 7.5-13.4 7.9-8.2 16.1-4.9 148.1 59.4zm555 172.5c2.7 0 127.7 93.4 277.9 207.5 150.1 114.1 415.6 315.8 907 688.9l72.1 109.1c70.2 106.1 71.9 109.3 62.9 118.5-9 9.1-10.9 8.1-72.1-37.4-34.6-25.8-97.4-73.6-139.7-106.3-42.2-32.7-75.6-61.7-74.2-64.5 1.4-2.7-1.4-7.8-6.3-11.3-8-5.8-8.1-5.5-1.2 2.7 4.1 5 5.8 9 3.8 8.8-2.1-0.1-26.5-18.3-54.1-40.4-27.7-22.2-49.2-42.6-47.8-45.3 1.3-2.8-1.5-7.9-6.3-11.3-8.1-5.8-8.2-5.6-1.3 3.3 4.4 5.6 5.1 8.7 1.7 7.5-3.3-1.1-48.6-37.4-100.7-80.7-52.1-43.3-150.2-126.8-218-185.5-67.8-58.8-234.8-205.1-371.1-325.2-222.4-195.9-247.3-219.3-242.7-228.3 2.9-5.6 7.4-10.1 10.1-10.1zm-199.6 608.8c3.1-0.1 103.1 44.8 438.5 199.8l357.2 260.9c196.5 143.5 434.3 317.1 528.4 385.8 94.1 68.8 171.7 126.6 172.4 128.6 0.8 2-1.5 7.9-5 13-6 8.7-37.1-4.5-479.4-203.2-260.1-116.8-522.8-234.8-583.7-262.2-60.9-27.4-113.2-52.6-116.4-56-3.1-3.4-75.7-101.3-161.4-217.5-85.6-116.3-159-216.3-162.9-222.3-6-9.2-6.1-12.1-0.3-18.9 3.8-4.3 9.4-8 12.6-8zm2212.3 111.1c4.1-0.2 74.3 15.6 155.9 35.1 81.7 19.5 150.8 37.9 153.5 40.8 3.5 3.8 2 4.5-5 2.4-5.5-1.6-74.6-18.7-153.5-38-140.4-34.4-143.9-34.9-168.6-28.2-13.8 3.7-21.7 7-17.6 7.3 4.2 0.2 15.5-1.8 25.2-4.4 14.9-4.1 41.1 0.9 324.6 70.3l11.3 22.6c7.8 15.6 9.4 22.7 5 23-3.5 0.2-1.8 2.3 3.8 4.7 6.7 2.9 1.7 3.6-15.1 2-18.4-1.6-22.5-0.9-15.1 2.6 7.3 3.5 3.3 4.2-15.1 2.5-18.4-1.7-22.4-1-15.1 2.5 7.3 3.5 3.3 4.2-15.1 2.5-18.4-1.7-22.4-1-15.1 2.5 7.3 3.5 3.3 4.2-15.1 2.5-19.2-1.7-22.8-1-15.1 2.9 8.5 4.3 7.7 4.7-5 2.6-8.3-1.4-40 1.7-70.5 6.9-54.4 9.3-55.9 9.2-90.5-0.3-19.4-5.3-35.8-9-36.4-8.1-0.6 0.8 15.3 6.3 35.3 12.1 35.8 10.5 36.9 10.5 89.1 1.8 29.1-4.9 54-8 55.4-6.9 1.4 1-0.9 2.9-5.1 4.1-4.1 1.3-29 5.8-103.1 17.9l-166.1-45.9c-91.3-25.3-169-48.5-172.5-51.5-3.6-3.1-6.5-9.6-6.3-14.4 0.1-4.8 5.3-10.8 11.5-13.2 6.2-2.4 63.4-17 127.1-32.4 63.6-15.4 119.1-28.2 123.3-28.3zm-358.1 151.3l39.4 12.1c21.7 6.7 75.1 23 118.7 36.2 43.6 13.2 78.5 26.3 77.5 29-0.9 2.8-109.1 71.2-240.3 152-131.2 80.8-240.8 147.1-243.6 147.3-2.8 0.2-9.6-2.9-15.1-6.9-9.9-7-9.9-7.5 5-37.5 8.6-17.2 17.3-28.9 20.1-26.9 3.2 2.2 3.4 0.8 0.6-4-3.1-5.2 1.6-19.6 15.1-46.3 11.1-21.9 21.7-37.2 24.6-35.2 2.9 2 3.4 0.9 1.2-2.8-2-3.5 0.8-16.5 6.4-29 5.5-12.4 11.7-21.7 13.8-20.6 2.1 1.1 3.8-2.7 3.8-8.3 0-5.7 3.4-11.5 7.5-12.9 6.7-2.3 6.7-1.5 0 7.1-7 8.9-6.9 9.1 1.4 2 4.9-4.1 7.7-8.7 6.2-10-1.5-1.4 3.9-9.9 11.9-18.9 8.1-9 17.7-16.4 21.5-16.5 4.3-0.1 2.2 5-5.7 13.8-11.4 12.7-11 12.6 3.7-1.1 8.9-8.3 15.1-16.2 13.7-17.6-1.4-1.4 3-8.7 9.7-16.3 6.7-7.7 15.2-14 18.9-14 4.7-0.2 3.7 3.4-3.2 11.3-8.3 9.5-7.7 9.3 3.7-1.1 7.6-6.9 12.6-13.7 11.2-15.1-1.4-1.4 4.5-9.9 13.1-18.9 8.7-9 17.8-16.3 20.4-16.3 2.6 0-1.6 7.3-23.3 32.7l16.2-15.1c8.9-8.3 15.1-16.8 13.8-18.9-1.3-2.1 5.4-10.4 14.9-18.5zm359.3 155.3c19.9 0 26.9 2.7 41.9 16.3 14 12.7 18.7 21.5 21 39 2.3 17.8 0.5 26.8-8 41.6-6 10.3-10.9 21.1-10.9 23.9 0 2.7 5.1 4 11.3 2.8 6.3-1.3 22.7-7.3 36.5-13.5 13.9-6.1 26.7-11.3 28.5-11.6 1.9-0.2 5.3-2.4 7.6-5 2.4-2.6 1.5-3.1-2.1-1.2-3.5 1.8-6.3 2.2-6.3 0.8 0-1.4 2.3-7.1 5-12.6 2.8-5.5 7.3-8.9 10.1-7.5 2.8 1.3 6.7-0.4 8.7-3.8 2.8-4.6 1.9-5-3.5-1.3-5.5 3.8-6.6 3.2-4.5-2.5 1.4-4.1 5.1-7.5 8.1-7.5 3 0 7.3-2.1 9.6-4.6 2.6-2.8 1.3-2.8-3.1 0-4.6 2.9-6.4 2.7-4.9-0.5 1.4-2.7 6.9-13.6 22.3-43.1l118.3 1.4c113.8 1.4 118.3 1.8 119.7 11.5 1 7.4-35 46.4-134.7 146-74.8 74.7-138.9 136.7-142.3 137.7-3.5 1 9.6-14.9 64.1-72.3l-41.2 40.2c-22.7 22.2-40.4 41.4-39.2 42.8 1.1 1.4-11.4 16.1-27.8 32.7-16.4 16.6-30.8 29.1-32 27.7-1.1-1.4-10.2-29.7-20.1-62.9-9.9-33.2-16.9-66-15.6-73 1.4-6.9 0.9-9.2-1-5-2.2 4.8-8.7-9.2-17.6-37.7-13.2-42.5-13.5-45.7-5.4-51.5 4.8-3.3 10.4-5 12.5-3.7 2.1 1.3 3.8-0.5 3.8-4 0-3.4-5.7-6.8-12.6-7.5-6.9-0.7-19.4-4.7-27.7-8.8-8.3-4.2-19.6-14.9-25.1-23.9-5.5-9-10-24.3-10-34 0-9.7 3-23.3 6.7-30.2 3.6-6.9 9.3-12 12.5-11.3 3.2 0.7 4.7-1 3.4-3.8-1.4-2.7 2.5-8.4 8.8-12.6 6.2-4.2 22-7.6 35.2-7.5zm-948 70.5c1.8 0 20.2 13.1 41 29.1 20.7 16 102.8 78.2 182.4 138.3 79.5 60.1 146.9 109.3 149.7 109.3 2.7 0 65.6-41.8 139.6-92.9 74-51.1 136.3-93 138.4-93.1 2.1-0.1 2.1 2.7 0 6.1q-3.7 6.3 2.6 2.5c3.4-2 5.1-6 3.7-8.8-1.4-2.7 14.5-16.3 35.2-30.2 20.8-13.8 38.9-25.1 40.3-25.1 1.4 0 0.8 2.8-1.3 6.2q-3.7 6.2 2.5 2.5c3.5-2 5.2-6 3.8-8.7-1.4-2.8 0.9-7.3 5-10.1 4.2-2.8 11-3.9 15.1-2.5 4.2 1.4 9 6.5 10.7 11.3 2 5.6-24.2 67.7-71.4 169.8-41 88.6-113.1 245.5-160.3 348.8-47.3 103.2-88.2 187.7-91 187.7-2.7 0.1-15.8-25.5-29-56.9-13.2-31.3-22.8-59.7-21.4-63.2 1.5-3.4 0.4-5.1-2.4-3.7-2.8 1.3-18.6-30.4-35.2-70.5-17.2-41.5-28.6-75.6-26.4-79.2 2.2-3.7 1.7-4.8-1.3-2.7-2.9 2.1-12.2-12.6-22.2-35.2-9.5-21.4-21.4-43.4-26.4-48.9-5-5.6-9.1-11.8-9.2-13.9 0-2.1 2.8-2.2 6.2-0.3 5.1 2.8 5.1 1.8 0-5-3.4-4.7-8.5-7.4-11.3-6-2.8 1.4-9.6-3.1-15.1-10.1-5.7-7.1-8.4-15.3-6.3-18.8q3.7-6.3-2.5-2.6c-3.9 2.4-10.2-1.1-16.3-8.8-5.7-7.1-8.5-15.3-6.4-18.8q3.7-6.3-2.5-2.5c-3.8 2.3-10.2-1.2-16.3-8.8-5.7-7.2-8.5-15.4-6.4-18.9q3.7-6.3-2.5-2.5c-3.8 2.3-10.1-1.2-16.3-8.8-5.7-7.2-8.4-15.4-6.3-18.9 2.2-3.8 1.7-4.8-1.3-2.6-2.8 2-41.9-40.5-89.2-96.9-46.4-55.3-87.2-104.9-90.6-110.2-5.1-7.8-5-11.1 0.6-17.6 3.7-4.4 8.3-7.9 10-7.9zm858.7 25.2l72.6 309.4-30.3 110.7c-16.7 60.9-31.9 112.3-33.8 114.3-1.9 1.9-64.6 46.3-139.4 98.7-114.5 80.2-137.2 94.2-144.7 89.5-4.8-3.1-8.8-9-8.8-13.2-0.1-4.1 2.2-14.9 5-23.9 3.4-11 7.2-15.1 11.4-12.6 4.4 2.7 5 1.6 1.9-3.7-2.8-4.9 1.2-23.2 11.4-51.6 11.1-31.3 17.5-43 21.9-40.3q6.3 3.7 2.6-2.5c-2.1-3.5-0.4-17.6 3.7-31.4 5.3-17.6 9.5-24.1 13.8-21.4 4.5 2.7 5 1.6 1.9-3.8-2.8-4.9 0.4-20.5 8.9-44 7.2-20.1 15.4-35.4 18.2-34 3.1 1.6 3.7-1.8 1.5-8.8-2.6-8.2-1.9-10.3 2.5-7.6 4.4 2.8 5.1 0.7 2.5-7.5-2.9-9.2-2.2-10.4 3.7-6.3 5.4 3.7 6.3 3.4 3.6-1.2-2.1-3.5-2.6-10.9-1.2-16.4 1.6-6.4 4.8-8.7 8.7-6.3q6.2 3.8 2.5-2.5c-2-3.5-1.4-14.2 1.4-23.9 2.7-9.7 7.3-16.5 10-15.1 3.1 1.5 3.7-1.8 1.5-8.8-2.9-9.2-2.2-10.4 3.7-6.3 5.4 3.7 6.3 3.4 3.6-1.3-2.1-3.4-1.5-14.2 1.3-23.9 3.4-11.9 7-16.4 11.3-13.8q6.3 3.6 2.5-2.6c-2.1-3.4-0.4-17.5 3.8-31.4 5.3-17.5 9.4-24 13.8-21.4q6.2 3.8 2.5-2.5c-2-3.4-1.5-14.2 1.3-23.9 3.4-11.9 7-16.4 11.3-13.8q6.2 3.7 2.5-2.5c-2-3.5-0.3-17.6 3.8-31.5 5.3-17.5 9.5-24 13.8-21.4q6.2 3.8 2.5-2.5c-2-3.4-1.4-14.2 1.3-23.9 3.5-11.9 7.1-16.4 11.3-13.8q6.2 3.7 2.5-2.5c-2-3.5-1.4-14.2 1.3-23.9 3.5-12 7.1-16.4 11.3-13.9q6.2 3.8 2.5-2.5c-2-3.4-0.2-17.6 4.2-31.4 6.9-22 9.5-25.2 34.9-25.1zm-1693.4 92.1c4.2 1.3 200.1 92.2 435.4 202 235.2 109.9 452.6 211.5 483 225.9 30.5 14.4 77.3 36.3 104.2 48.7 45.6 21 48.6 23.3 45.8 35-1.6 7-3.2 13-3.5 13.5-0.3 0.5-17.5-2.2-38.3-6-20.7-3.8-214.3-37.8-430.2-75.6-291.6-51-394.6-70.8-400.6-77-4.5-4.6-31.9-46.8-61-93.9-29.1-47-77.1-124-106.5-171.1-51.3-81.8-53.3-85.9-44.8-94.6 4.8-5 12.3-8.1 16.5-6.9zm2301-1.3c2.1-0.2 3.8 0.8 3.8 2.2 0 1.4-27.5 20.1-61.1 41.5-33.6 21.5-62.4 41.3-64 44-1.6 2.8 3.8 0.7 12-4.6 8.2-5.3 37-24.6 64-42.8 27-18.2 49.9-31.9 51-30.6 1 1.4 7.8 14.4 15.1 29 7.2 14.5 12 26.4 10.6 26.4-1.4 0-3.4-0.6-4.5-1.3-1.1-0.7-6.8 3.3-12.7 8.8-5.9 5.6-10.8 12.4-10.8 15.1-0.1 2.8 3.5 1.7 7.9-2.5 4.4-4.1 8-6.4 7.9-5 0 1.4-6.3 8.2-13.9 15.1-9.6 8.8-11.6 9.5-6.6 2.5 5.1-7 3.1-6.2-6.5 2.5-7.6 6.9-13.8 14.3-13.7 16.4 0 2 2.9 2.2 6.4 0.4 3.4-1.9 1.7 1.5-3.8 7.5-5.5 6.1-11.2 9.9-12.6 8.4-1.4-1.4-6.5 1.5-11.5 6.3-4.9 4.9-9 11.1-9 13.9 0 0.9 0.4 1.4 1 1.5l-9.7 8.5c-6.3 5.6-10.2 12.9-8.7 16.4 1.5 3.4-4.4 13.6-13 22.6-8.7 9-12.7 11.8-8.9 6.3 6.4-9.2 6.2-9.5-1.8-3.8-4.9 3.5-7.7 8.6-6.3 11.4 1.4 2.7-4.6 12.3-13.2 21.3-8.7 9-12.7 12.3-8.8 7.4 3.8-5 5.8-9 4.4-9-1.4 0-7.1 5-12.6 11.1-5.5 6.1-7.2 9.6-3.8 7.8 3.5-1.9 6.3-1.7 6.2 0.4-0.1 2-3.3 7.1-7.2 11.3-3.9 4.1-40.4 90.2-81.1 191.2-40.8 101-78.1 193.8-82.9 206.3-4.9 12.5-11.3 22.6-14.4 22.6-3 0-8.9-0.5-13-1.2-6-1-7.4-8.4-5.7-69.2l1.6 31.4c1.3 26.1 3.1 31.5 10.3 31.4 5.9 0 6.8-1.3 2.9-3.8-4.2-2.5-6.6-36.1-8.2-111.8-1.3-62.9-0.7-91.4 1.5-68 2.3 25.7 3.3-3.4 2.6-80.5-0.7-75 0.2-106.4 2.5-83 2.9 28.9 3.6 18.6 2.5-125.7l156-102.9c85.8-56.6 157.7-103.1 159.8-103.2zm-49.3 153.2q-0.5 0.7-1 1.4-0.4 0.1-0.7 0.1zm-1 1.4c1.4-0.2 3.7-1.6 6.2-4 4.4-4.1 8-6.4 8-5-0.1 1.4-6.4 8.2-14 15.1-9.2 8.4-11.4 9.4-0.2-6.1zm-1938.2 323.1c2.6 0 155.8 25 340.5 55.6 184.7 30.6 341 56.6 347.2 57.9 9.2 1.8 11.1 5.2 8.8 33.9l-191.2 61-168.6-26.8c-92.7-14.7-170.9-28.2-173.9-29.9-2.9-1.8-41.4-29.1-85.5-60.6-44.1-31.6-82-58.8-84.2-60.4-2.2-1.7-2.5-9.2-0.8-16.8 1.7-7.7 5.2-13.9 7.7-13.9zm1405.9 39.5l3.4 11.7c1.9 6.5 13.3 72.3 25.3 146.3 19.8 122.7 21.1 135.7 14.2 146.7-4.2 6.6-90.5 102.3-191.9 212.6-101.4 110.3-189.7 205.4-196.2 211.3-6.6 6-117.2 54.3-479.9 204.1l-9.1-11.8c-7.3-9.6-7.7-12.9-2.5-17.4 3.6-3 103.8-84.5 222.6-181.1 212.1-172.5 216.2-176.2 229.4-205.8 7.4-16.7 39.3-91.9 70.8-167.2 31.6-75.3 59.1-135.8 61.2-134.6 2 1.3 2.6-1.6 1.2-6.5-1.5-4.8-0.9-11.2 1.2-14.1 2.1-2.9 32.7-27.2 68-54.1 35.3-26.8 65.9-48.9 67.9-49 2.1-0.1 0.4 3.9-3.7 8.8-6.9 8.3-6.8 8.5 1.2 2.8 4.9-3.5 7.7-8.6 6.3-11.4-1.4-2.7 15.6-18.6 37.8-35.2 22.1-16.6 41.9-30.3 44-30.4 2.1-0.1 0.4 3.8-3.8 8.8-6.9 8.3-6.8 8.5 1.3 2.8 4.8-3.5 7.6-8.6 6.3-11.4-1.4-2.7 3.6-9.7 11.2-15.4zm-1704.4 21.3c12.2-0.3 17.7 2.4 21.8 10.8 5 10.3 2.4 14.3-26.4 41.4-17.5 16.5-63.6 61.6-172.8 170.1l-108.2-13.3c-59.5-7.3-109.3-14.4-110.7-15.9-1.4-1.4 6.5-22.2 37.7-89.7l130.9-71 105.6-15.9c58.2-8.8 113.1-16.2 122.1-16.5zm1299.5 90.2c1.4-0.2 7 2.9 12.6 6.8 9.8 6.9 9.4 9.1-24.7 129.7-19.1 67.4-38.7 137.3-43.5 155.3-8.5 31.9-10.9 35-108.7 139.2-54.9 58.5-103.3 106.7-107.5 107-4.1 0.3-11.3-2.4-15.9-5.9-7.8-5.9-7.9-13.6-1-107 4.4-59.4 9.9-103.6 13.5-107.9 4.7-5.7 4.6-6.5-0.3-3.8-4.3 2.4-6.2-0.2-6-7.8 0.2-6.2 1.9-15.2 3.8-19.9 1.9-4.8 64.6-71 139.3-147.1 74.7-76.1 137-138.5 138.4-138.6zm-1107.1 15.2c1.4 0 53.5 18 229 79.8l181.1 21c99.7 11.5 182.7 22.3 184.5 24.1 1.9 1.8 4.1 8.8 5.1 15.7 1.6 11.9-12.6 19-627.3 303.1l-269.3 62.8c-256.5 59.9-269.5 62.4-275.6 53.6-3.6-5.1-5.8-11.7-5.1-14.6 0.8-2.9 130.5-126.9 288.3-275.4 157.7-148.6 287.9-270.1 289.3-270.1zm-1379.6 60.2c7.4 0 165.2 16.9 350.6 37.7 185.4 20.7 337.4 38.3 337.7 39 0.3 0.7 2 6.9 3.7 13.9 3.1 12.4 1.8 13-245.8 91.7l-176.1-59.3c-96.9-32.6-201.6-67.9-232.8-78.5-31.1-10.7-56.6-21.6-56.6-24.4 0-2.8 1.4-8.4 3-12.6 1.6-4.1 9-7.5 16.3-7.5zm-190.5 20.1c4.2 0 10.2 3.9 13.2 8.8 3 4.8 43.8 58.4 90.6 119 46.8 60.6 86.7 110.9 88.8 111.9 2.1 1 3.8 4.7 3.8 8.1 0 5-16.7 5.2-81.8 0.7-77.9-5.4-84.3-5.1-137.1 6-30.4 6.4-71.2 15-90.6 19.1-19.3 4.2-37 6-39.2 4.1-2.2-1.9-3.4-8.7-2.5-15.2 1.2-9.7 14-17.7 74.4-46.5 40.2-19.1 73.6-37.6 74.3-41.1 0.8-3.5-3.1-41.4-8.5-84.3-9.1-72.6-9.2-78.4-1.4-84.3 4.6-3.5 11.8-6.3 16-6.3zm2324.2 82.2c1.3 0.6-1.5 78-6.2 172-4.8 94.1-10.2 172.3-12.2 174-1.9 1.6-72.6 18.4-310.5 71.7l-153.4-36.8c-84.5-20.2-157.5-38.7-162.3-41.1-5.7-2.8-8.4-9.1-7.6-17.8 1.2-12.3 10.6-17.9 107-63.8 58.1-27.7 204-97.3 324.2-154.7 120.2-57.5 219.6-104 221-103.5zm-1188.1 43.9c3.5-0.1 7.8 5.9 9.5 13.5 3 12.8-5.3 22.3-109.4 124.6-104.1 102.4-114.8 111.4-140.4 119.1-15.2 4.6-79.7 23.6-143.4 42.3-84.5 24.8-117.7 32.5-123.3 28.8-4.1-2.8-8.1-8.3-8.9-12.1-0.7-3.9 29.9-53.4 137.3-213.3l186.1-51.3c102.4-28.2 189.1-51.4 192.5-51.6zm-834.2 81.9c7 1.3 76.9 13.4 155.2 26.7 78.4 13.3 142.4 26 142.2 28.1-0.2 2.2-29.2 26.8-64.5 54.7-59.1 46.9-68 56.3-113.5 119.6-27.1 37.7-51.2 72-53.5 76.2-3.7 6.6-5.9 6.4-30.5-10.1l20.7-49.1c11.4-26.9 26.2-63.2 44.7-111.9l-65.4-55.4c-41.5-35.1-64.2-57.6-62.1-61.6 1.8-3.5 5.7-9.3 8.6-13 3-3.8 10.7-5.6 18.1-4.2zm-67.8 215c5.6-0.2 13.1 4.8 16.9 11 6.4 10.8 3.3 14.7-132.6 149.3l-85.5 25.3c-47.1 13.9-87.9 25.3-90.6 25.5-2.8 0.1-8.1-4.9-11.9-11.2-6.3-10.7-3.9-15.9 34-73.1 22.4-33.9 43.6-63.4 47.1-65.5 3.4-2 52.7-16.6 109.4-32.3 56.8-15.7 107.7-28.7 113.2-29zm587.5 150.7c5 0 10.1 4.9 11.7 11.3 1.5 6.2-0.2 15.1-3.8 19.8-3.6 4.7-22.5 28.9-41.8 53.9-19.4 24.9-38.7 46.8-42.8 48.7-4.2 1.8-65.3 19.7-135.9 39.9-127.8 36.4-128.3 36.5-134.1 25.8-3.3-5.9-5.3-11.9-4.5-13.3 0.8-1.3 69.1-38.5 151.8-82.6 82.7-44 159.4-85.3 170.5-91.7 11.1-6.5 24.1-11.8 28.9-11.8zm1391.4 5.4c3.4-0.2 9.1 5.2 12.6 12.1 3.4 6.9 5.1 13.4 3.7 14.4-1.4 1-43.3 33.5-93.1 72.2-49.8 38.7-96.2 73.9-103.1 78.3-10.6 6.7-44.2 8.9-206.3 13.4-106.6 3-214.7 6.5-240.3 7.9-44.5 2.5-46.8 2.1-52-8.8-3-6.2-3.6-13-1.3-15 2.3-2.1 154.8-42.1 338.9-89 184-46.8 337.4-85.3 340.9-85.5zm-754.8 5.2c7.1-0.4 13.3 3.6 16.7 10.7 3 6.3 3.6 12.8 1.3 14.5-2.3 1.8-101.6 64.9-436.9 277.4l-154.8 10.7c-99.3 6.9-154.7 8.9-154.6 5.7 0.1-2.8 4.2-9.6 9.2-15.1 5-5.6 40.5-53.1 78.9-105.7 38.3-52.6 69.8-96.1 70-96.6 0.2-0.5 55.8-4.3 246.9-16l156-42.5c85.8-23.4 161-42.8 167.3-43.1zm-1016.5 74.7c3.6 4.2 6.4 10.6 6.4 14-0.1 3.5-23 28.4-101.8 104.5l-59.9-7.6c-40.6-5.1-59.9-9.6-59.9-13.8 0.1-3.5 5.2-16.8 11.4-29.7 9.8-20.2 16.1-25.8 46.6-41 27.4-13.7 47.9-19.3 93-25.9 52.1-7.5 58.5-7.5 64.2-0.5zm870.5 100.8c0.7 0 4.7 5.7 8.8 12.6 7.3 12.1 6.8 13.3-11 29-10.3 8.9-95.2 83.7-358.8 315.7l-264.2 100.7c-145.3 55.3-267 100.6-270.5 100.6-3.4 0-9.1-4.5-12.5-10.1-5.8-9.2 7-24.5 150.1-179.9 86.1-93.4 160.2-172.5 164.8-175.8 4.6-3.4 71.3-12.5 290.2-35l140.9-72.1c77.5-39.6 145.4-75.1 150.9-78.9 5.6-3.8 10.7-6.8 11.3-6.8zm-1196.6 97.8c4.3 1.2 86.1 10.8 355.5 40.5l1.1 15.1c1.1 15.2 1.1 15.2-59.3 34.1-33.3 10.4-64.5 18.9-69.3 18.9-4.9 0.1-62.7-18.6-128.5-41.5-83.7-29.1-119.9-43.9-120.5-49.4-0.5-4.3 2.3-10.5 6.1-13.8 3.8-3.4 10.5-5.1 14.9-3.9z"/>
		<path id="Path 2" class="s1" d="m3399.8 1615.6c-12.4 3.6-19.2 6.7-15.1 7 4.2 0.3 15.5-1.7 25.2-4.3 14.9-4.1 41.1 0.9 171.1 32.7l153.5 37.6c17.5 35 22 45.3 21.3 45.4-0.7 0.2-57.8 10.1-127 22.1l-125.8 21.7c-54.6-15-71-18.7-71.6-17.8-0.6 0.8 15.3 6.3 35.3 12.1 33.8 10 39.1 10.2 76.5 4 22.2-3.6 46.5-7.9 54.1-9.4 8.4-1.6 12.9-0.7 11.4 2.3-1.4 2.8-2 5.1-1.3 5 0.7 0 53.3-9 117-20.1 63.6-11 117.4-20.1 119.5-20.1 2.1 0 3.2-7.2 2.5-16.1-1.2-15.7-2.1-16.2-44-26.7-23.5-5.9-50.1-12.3-59.1-14.2-12.3-2.5-15.5-1.8-12.6 2.8 2.5 4.2 1.3 5.2-3.8 3.3-4.1-1.6-47.8-12.9-96.9-25.1-59.4-14.7-86.5-23.4-80.6-25.9 5.2-2.2 2.6-2.6-6.2-1-8.5 1.6-37.3-2.7-66.6-10-28.4-7.1-52.2-12.7-52.9-12.4-0.7 0.3-11.4 3.4-23.9 7.1zm978.7 86.5c-249 48.4-454 88.9-455.3 90.1-1.4 1.2 11.8 35.5 29.4 76.3 17.5 40.8 34.5 77.1 37.7 80.8 4.7 5.3 81.2-21.1 403.3-139.3 218.7-80.2 410.6-150.5 426.5-156.3 26.5-9.6 28.9-11.8 28.9-25.6 0-11.2-2.2-14.9-8.8-14.5-4.8 0.3-212.6 40.1-461.7 88.5zm-1223.8-34.7c-1.7 1.5-2.8 6.3-2.5 10.6 0.3 4.4 4.5 11.4 9.3 15.6 5 4.3 7.3 4.8 5.3 1.2-1.9-3.4-1.2-6.3 1.6-6.3 2.7 0 3.9-3.4 2.5-7.5-1.5-4.6 1-8.2 6.3-9.1 5.5-0.9 3.6-2.5-5.3-4.3-7.7-1.5-15.5-1.6-17.2-0.2zm597.4 250.7c6.9 0.9 26.5 2.2 43.5 3 17.1 0.8 30.1-0.3 29-2.4-1.2-2-20.8-3.4-43.6-3-22.8 0.4-35.9 1.5-28.9 2.4zm-25.2 112.9c-51.2 51.8-89.7 93-85.5 91.5 4.1-1.5-1.5 7.2-12.5 19.4-11.1 12.2 7.5-5 41.2-38.2 33.7-33.3 60.3-62.1 59.1-64.2-1.3-2.1 1.2-6.6 5.5-10.1 4.3-3.4 7.6-4.6 7.5-2.5-0.1 2.1 20.3-14.9 45.3-37.7 25-22.9 45.4-44.9 45.4-49.1-0.1-5.6-2.1-5-7.8 2.5-6.3 8.4-7.2 8.6-5.2 1.3 1.3-4.8 1.9-8.4 1.3-8-0.7 0.5-43.1 43.3-94.3 95.1zm-374.2-79.6c-1.8 4.9-3.2 16.2-3.3 25.2 0 9 3.3 20.9 7.4 26.4 4.1 5.6 7.5 7.8 7.5 5.1 0-2.8 6.3 0.6 14 7.5l14 12.6c-19.5-21.3-27.3-25.8-29.9-23.8-2.8 2.2-3.2-1.3-0.9-8.9 2.8-9.5 2.5-10.8-1.5-5.1-4.1 5.8-5.3 2.2-5.3-15.1 0-16.4 1.3-20.5 4.9-15.1 2.7 4.2 4.8 5.3 4.8 2.6 0-2.8-1.9-8.5-4.3-12.6-3.7-6.5-4.7-6.3-7.4 1.2zm651 97.2c-34.6 23.4-62.9 45.2-62.9 48.4 0 3.2-3.4 7-7.6 8.5-5.6 2-6.3 0.8-3-4.6 2.8-4.4 2.8-5.6 0-3.1-2.5 2.3-4.5 6.6-4.5 9.6 0 3-3.4 6.7-7.6 8.2-5.6 2-6.3 0.7-2.9-4.6 2.7-4.4 2.7-5.7 0-3.1-2.6 2.3-4.6 6.6-4.6 9.6 0 3-3.4 6.7-7.6 8.1-5.7 2.1-6.3 1-2.5-4.5 3.7-5.4 3.4-6.3-1.2-3.6-3.5 2.1-5.2 6-3.8 8.8 1.4 2.8-2 7.3-7.6 10.1-5.5 2.7-12.3 3.9-15.1 2.5-2.7-1.4-4.4 0.3-3.7 3.8 0.6 3.4-2.7 5.7-7.6 5-4.8-0.7-8.2 1.6-7.5 5 0.7 3.5-2.7 5.7-7.6 5.1-4.8-0.7-8.2 1.5-7.5 5 0.7 3.6-3 5.8-8.8 5.1-5.6-0.6-8.4 0.5-6.4 2.5 2.1 2 1 7-2.5 11-5.1 5.9-4.9 6.4 1.3 2.8 4.2-2.4 30.8-19.8 59.1-38.7 28.4-18.8 54.4-35.5 57.9-36.9 3.8-1.7 10.8 6.3 17.6 20.1l11.3 22.8c-76.2 91.6-101 121.6-104.1 125.8-4.4 5.8-4.1 7.5 1.6 7.5 4.1 0 54.3-55.3 111.6-122.9 57.3-67.6 105.9-125.9 107.9-129.6 2.2-3.8 0.1-11-5-16.9-4.8-5.6-9.9-10-11.3-9.7-1.4 0.3-30.8 19.6-65.4 42.9zm-716.5-6.6c-5.9 17.5-6.7 26.3-2.9 32.7 4.3 7.1 4.6 6.3 1.6-3.7-2.7-9.2-2-11.6 2.3-8.9 4.3 2.7 4.9 0.6 2.4-7.5-2.6-8.2-1.9-10.3 2.5-7.5 4.3 2.6 5.2 0.5 3.1-7.6-2.3-9-1.8-9.8 2.5-3.8 2.9 4.2 5.4 5.3 5.4 2.5 0-2.7-2-8.4-4.4-12.5-3.3-5.7-6.4-1.6-12.5 16.3zm281.1 144.7c-22.1 22.2-37.9 40.2-35.1 40.2 2.7-0.1-0.6 6.1-7.5 13.8-6.9 7.6-4.1 6 6.2-3.7 10.3-9.7 17.6-18.7 16.1-20.1-1.4-1.4 12.7-17.8 31.4-36.5 18.7-18.7 32.9-34 31.5-34-1.4 0-20.6 18.2-42.6 40.3zm194 27.5c1.3 2.9-1.6 4.6-6.5 3.9-4.8-0.7-8.2 1.6-7.5 5.1 0.7 3.4-2.7 5.7-7.6 5-4.8-0.7-8.2 1.6-7.5 5 0.7 3.5-2.7 5.8-7.6 5.1-4.8-0.7-8.2 1.5-7.5 5 0.7 3.5-2.4 6.3-6.9 6.3-4.5 0-7.4 1.7-6.3 3.8 1 2-16.3 15.6-38.6 30.2-22.3 14.5-40.4 26.9-40.3 27.6 0.2 0.7 3.1-0.3 6.6-2.1 3.4-1.9 36.8-23.7 74.2-48.5 37.3-24.8 69.6-46.5 71.6-48.3 2-1.8-1.3-3.3-7.4-3.3-6 0-10 2.3-8.7 5.2zm-148.2 173.8c-2.5 53.2-2.1 119.8 1 168.5l5.2 80.6c-2.1-191.6-1.2-228.7 0.7-206.4 3.4 40.2 3.4 40.2 3.8-17.6 0.3-31.8-1.1-70.3-3.1-85.5-2.8-22-4.3-9.7-7.6 60.4zm-7.2 228.9c-0.4 36 0.9 86.4 3 112 3 36.5 5.4 46.6 11.3 46.5 5.2-0.1 5.8-1.3 1.7-3.8-3.9-2.5-7.4-39.5-10.5-111.9-4.3-99.6-4.8-103-5.5-42.8z"/>
		<path id="Path 3" class="s1" d="m3731.9 2034.3c-48.4 49.1-67.6 69.7-42.7 45.9 24.9-23.8 65.5-63.9 90.2-89.1 24.7-25.3 43.9-45.9 42.7-45.9-1.2 0-41.8 40.1-90.2 89.1z"/>
		<path id="Path 4" class="s1" d="m3269 1715.5c1.4 1.1 28.5 9.2 60.4 18 31.8 8.8 58.3 15.3 58.9 14.4 0.6-0.8-24.3-8.8-55.3-17.8-31.1-9-58.7-16.4-61.5-16.5-2.8-0.1-3.9 0.7-2.5 1.9zm123.1 207.3c-9.6 7.6-9.5 7.6 1.4 2.5 6.3-2.9 18.1-5.3 26.5-5.3 8.3 0 20.1 2.4 26.4 5.3 11 5.2 11 5.1 1.2-2.6-5.5-4.4-18-7.9-27.8-7.8-9.7 0-22.2 3.6-27.7 7.9zm251.8 5.9c-24.9 0.8-48.7 3-52.9 4.8-4.1 1.7-9.2 2.8-11.3 2.4-2.1-0.5-2.1 3.2-0.1 8 2.6 6.2 1.9 7.7-2.5 5-3.4-2-7.3-1.5-8.7 1.3-1.4 2.8 0.8 4.4 4.8 3.8 4-0.7 10.2-5.1 13.8-9.8 5.6-7.3 22.8-9.2 119.8-13.1 77.2-3.1 92.4-4.4 47.8-4.3-36 0.2-85.8 1-110.7 1.9zm45.1 153.6l-40.1 41.5c64.4-62.4 83.1-81.1 83.1-81.8 0-0.7-0.7-1.2-1.4-1.2-0.8 0-19.5 18.6-41.6 41.5zm-266.1 36.5c-1.6 4.1-0.1 16.6 3.3 27.6 4 12.7 7.7 17.8 10 13.9 2.1-3.5 3.7-9.7 3.7-13.9 0-6.7-0.6-6.7-5.3 0-4.1 5.8-4.7 4-2.3-7.5 2.4-11.8 1.8-13.5-2.5-7.6-4.5 6-5.1 4.7-3.1-6.3 1.4-7.6 1.8-13.8 0.9-13.8-1 0-3.1 3.4-4.7 7.6zm24.9 86.8c-1.5 4.8 0.5 17.8 4.5 28.9 3.9 11.1 7.4 17.3 7.6 13.8 0.1-3.4 1.7-10.2 3.3-15.1 2.6-7.5 2.1-7.7-2.9-1.2-4.8 6.1-5.3 4.6-2.9-7.6 2.4-11.8 1.9-13.4-2.5-7.5-4.4 6-5 4.7-3-6.3 1.4-7.6 1.7-13.8 0.7-13.8-1.1 0-3.2 3.9-4.8 8.8zm15.1 50.3c-1.6 4.8-0.8 14.4 1.9 21.4 3.3 8.6 4.9 9.8 5.2 3.7 0.1-4.8 2-7.7 4-6.3 2.1 1.3 8.3-2.7 13.9-8.9l10-11.2c-20.5 18-22.9 18.6-22.8 12.6 0-6.7-0.5-6.7-5.3 0-4.2 5.9-4.8 4.5-2.8-6.3 1.4-7.6 1.7-13.8 0.7-13.8-1.1 0-3.2 3.9-4.8 8.8z"/>
	</g>
</svg>