<svg version="1.2" xmlns="http://www.w3.org/2000/svg" viewBox="0 0 5000 5000" width="5000" height="5000">
	<title>remisalogo2 (1)</title>
	<style>
		.s0 { fill: #000000 } 
	</style>
	<path id="Path 0" fill-rule="evenodd" class="s0" d="m0 0h5000v5000h-5000zm701.3 655.2c-1.6 2.3-3.3 5.3-3.7 6.5-0.4 1.6 0.5 4.5 2.8 9 1.8 3.8 11.7 20.8 21.8 37.8 10.2 17 28.9 48.1 41.5 69 12.6 20.9 31.3 51.7 41.5 68.5 10.2 16.8 27.4 45.1 38.3 63 10.9 17.9 23 37.7 27 44 4 6.3 17.5 28.4 30 49 12.6 20.6 29 47.6 36.5 60 7.6 12.4 26.2 43 41.5 68 15.3 25 36.9 60.6 48.1 79l20.2 33.5c103.6 65.4 142.9 90.2 154.2 97.3 11.3 7.1 34.9 22.1 52.5 33.2 17.6 11.1 37 23.5 43.2 27.4 6.2 3.9 17 10.7 24 15.2 7 4.5 18.9 11.9 26.3 16.6 7.4 4.7 31.1 19.7 52.5 33.3 21.5 13.6 42.4 26.9 46.5 29.6 4.1 2.7 11.8 7.5 17 10.9 5.2 3.3 17.5 11 27.2 17.2 9.7 6.2 27.5 17.6 39.5 25.2 12 7.7 26.5 17 32.3 20.6 5.8 3.7 28.3 18.1 50 32 21.7 13.9 45.9 29.3 53.8 34.4 7.8 5 17.4 11.1 21.2 13.6 3.9 2.5 17.5 11.2 30.3 19.5 12.8 8.2 38 24.5 56.2 36.3 18.2 11.8 37 24 41.8 27.1 4.8 3.1 25.3 16.3 45.5 29.5 20.2 13.1 40.8 26.4 45.7 29.6 5 3.1 24.3 15.6 43 27.7 18.7 12.1 44.7 28.9 57.7 37.4 13.1 8.5 47.3 30.7 76 49.4 28.8 18.7 72.1 46.9 96.3 62.7 24.2 15.7 67.5 44.1 96.2 63 28.8 18.9 61.6 40.4 73 47.9 11.5 7.5 34.5 22.6 51.3 33.6 16.8 11 35.2 22.8 41 26.3 5.8 3.4 13.4 7.7 17 9.5 3.6 1.8 8.3 3.6 10.5 4 3.4 0.6 4.4 0.3 6.4-1.7 1.3-1.3 3.7-4.3 5.3-6.8 1.5-2.5 2.8-5.4 2.8-6.5-0.1-1.1-3.3-5.6-7.3-10-4-4.4-18.7-20.6-32.7-36-14-15.4-40.8-44.7-59.5-65-18.7-20.3-46.8-51-62.5-68-15.7-17-42.2-45.8-59-63.9-16.8-18.2-42.4-45.8-56.9-61.5-14.5-15.8-36.1-39.2-48-52.1-11.9-12.9-29.5-31.8-39.1-42-9.6-10.2-28.3-30.3-41.5-44.5-13.2-14.3-30.1-32.5-37.5-40.5-7.4-8-24.5-26.5-38-41-13.5-14.6-38.3-41.3-55-59.5-16.8-18.2-36.8-39.8-44.5-48-7.7-8.3-22.1-23.8-32-34.5-9.9-10.7-21.2-22.9-25.1-27-3.9-4.1-20.3-21.9-36.6-39.5-16.2-17.6-35.5-38.5-42.9-46.5-7.3-8-18.8-20-25.4-26.8-7.7-8-18.9-17.7-31.5-27.6-10.7-8.4-32.1-25.1-47.5-37.1-15.4-12.1-32.5-25.4-38-29.8-5.5-4.3-21.9-17.1-36.5-28.4-14.6-11.4-32.8-25.7-40.5-31.8-7.7-6.1-22.5-17.8-33-26-10.4-8.2-32.9-25.8-50-39.1-17-13.3-35.7-28-41.5-32.5-5.8-4.5-21.5-16.8-35-27.3-13.5-10.4-41.8-32.5-63-49-21.1-16.6-54.4-42.4-74-57.4-19.5-15-52.4-40-73-55.5-20.6-15.5-43.6-32.6-51-37.9-7.4-5.2-19.8-13.6-27.5-18.6-7.7-4.9-19.4-11.9-26-15.5-6.6-3.5-25-12.8-41-20.5-15.9-7.7-51.3-24.8-78.5-38-27.2-13.2-78.5-38-114-55.2-35.5-17.2-71.7-34.5-80.5-38.5-8.8-4-19.8-8.9-24.5-10.8-4.7-1.9-11.2-4.2-14.5-5.1-3.3-0.9-6.7-1.6-7.5-1.5-0.8 0-2.6 0.6-4 1.3-1.4 0.8-4 3.4-5.7 5.8zm696.5 238.3c-1 2.6-0.8 3.6 1.3 7.5 1.4 2.6 10.7 12.8 22.4 24.6 11 11 27.4 26.8 36.5 35 9.1 8.2 27.3 24.6 40.5 36.4 13.2 11.8 26.1 23.3 28.6 25.5 2.5 2.2 18.5 16.4 35.5 31.6 17 15.1 39.9 35.4 50.9 44.9 11 9.6 32.4 28.2 47.5 41.5 15.1 13.2 35.6 31.2 45.5 39.9 9.9 8.8 39.8 35.1 66.5 58.5 26.7 23.4 55.7 48.8 64.4 56.6 8.8 7.7 21.2 18.5 27.5 24 6.4 5.4 21.3 18.5 33.1 29 11.8 10.5 30.7 27.1 42 36.9 11.3 9.8 25 21.8 30.5 26.5 5.5 4.8 20.3 17.7 33 28.7 12.7 10.9 31.1 26.9 41 35.4 9.9 8.5 32.2 27.6 49.5 42.4 17.3 14.9 37.6 32.2 45 38.5 7.4 6.3 17.8 15.1 23 19.6 5.2 4.4 23 19.3 39.5 33.1 16.5 13.8 42.6 35.3 58 48 15.4 12.6 36.3 29.5 46.5 37.6 10.2 8.1 19.9 15.6 21.7 16.5 1.8 1 3.6 1.5 4 1.1 0.4-0.4-0.5-2.7-2.2-5-1.7-2.4-3.3-4.8-3.7-5.5-0.5-0.8-0.2-1.3 0.7-1.3 0.8 0 3 1.5 4.8 3.2 2.1 2.1 3.7 5.1 4.6 8.3 1.1 4.4 2.6 6.4 12.5 16 6.1 6 18.1 16.6 26.5 23.5 8.4 6.9 22.8 18.3 32 25.4 9.1 7.2 19.5 14.9 23.1 17.3 3.6 2.4 6.8 4.3 7.3 4.3 0.4 0 0.7-0.3 0.7-0.8 0.1-0.4-1.5-3.1-3.5-6-1.9-2.8-3.2-5.4-2.7-5.7 0.4-0.2 2.4 0.9 4.5 2.5 2.9 2.4 3.8 3.9 4.3 7.2 0.6 3.7 1.8 5.4 8.3 11.8 4.2 4.1 12.1 11.4 17.6 16.1 5.5 4.7 19.2 16 30.5 25 11.3 9 30.8 24.3 43.4 33.9 12.5 9.6 31 23.8 40.9 31.4 10 7.7 33.6 25.5 52.3 39.5 18.8 14.1 40 29.9 47 35.1 7.1 5.2 16.7 11.8 21.4 14.7 4.7 3 10.3 6.1 12.5 7 3.5 1.4 4.4 1.4 7.4 0.2 1.9-0.8 4.7-3 6.3-4.9 1.5-1.9 2.8-4.3 2.8-5.3 0-0.9-0.8-4.1-1.8-7-1-2.8-4.3-9.5-7.2-14.7-3-5.2-9.4-15.8-14.3-23.5-4.9-7.7-23.8-36.5-41.9-64-18.1-27.5-42-63.8-53.1-80.6l-20.2-30.7c-64.4-48.6-112.6-85.1-148.6-112.5-36-27.3-76.2-57.9-89.4-68-13.2-10-39.1-29.7-57.5-43.7-18.4-14-35.3-26.8-37.7-28.5-2.3-1.7-11.3-8.4-19.9-15-8.6-6.6-24.7-18.9-35.8-27.3-11-8.5-33.4-25.5-49.6-37.8-16.2-12.3-42.6-32.2-58.5-44.4-15.9-12.1-37.6-28.5-48-36.4-10.4-7.9-21-16-23.5-17.9-2.5-1.9-26.5-20.2-53.5-40.8-26.9-20.5-56.7-43.2-66.1-50.3-9.5-7.2-46.5-35.4-82.4-62.6-35.8-27.2-77.9-59.2-93.5-71-15.6-11.8-44.7-33.9-64.6-49.1-20-15.2-47.4-35.9-60.9-46.1-13.5-10.1-40-30.1-59-44.4-19-14.2-52-39-73.5-55-21.4-16-42.8-31.7-47.5-35-4.7-3.3-10.1-7-12-8.2-1.9-1.2-4.1-2.2-4.8-2.2-0.7 0-2.6 1.5-4.3 3.2-1.6 1.8-3.4 4.6-4.1 6.3zm-203 607.3c-1.6 1.8-3.1 4.2-3.4 5.4-0.4 1.3-0.2 3.6 0.3 5.3 0.5 1.7 2.9 5.9 5.3 9.5 2.4 3.6 14 19.8 25.9 36 11.8 16.2 36.2 49.5 54.1 74 18 24.5 45.3 61.6 60.6 82.5 15.4 20.9 42.4 57.3 59.9 81 17.5 23.7 45 60.8 61 82.5 16 21.7 36.4 49.3 45.3 61.2l16.2 21.8c50.8 24.9 75.2 36.6 87 42 11.8 5.4 33.7 15.2 48.5 21.8 14.8 6.6 39.6 17.7 55 24.7 15.4 7 38.1 17.2 50.5 22.7 12.4 5.5 42.8 19.2 67.5 30.3 24.8 11.2 65.3 29.4 90 40.5 24.8 11.1 54 24.3 65 29.2 11 5 42.1 19 69 31 26.9 12.1 57.8 26 68.5 30.8 10.7 4.8 31.2 14 45.5 20.5 14.3 6.5 40.4 18.2 58 26 17.6 7.8 44.6 19.9 60 26.8 15.4 6.9 39.7 17.8 54 24.2 14.3 6.4 32.5 14.6 40.5 18.2 8 3.6 18.3 8.2 23 10.3 4.7 2.1 28.3 12.6 52.5 23.5 24.2 10.8 49.2 21.9 55.5 24.7 6.3 2.7 17.3 7.6 24.5 10.8 7.2 3.2 22.7 10.1 34.5 15.3 11.8 5.2 29.6 12.9 39.5 17.1 9.9 4.3 20.5 8.8 23.5 10.1 3 1.3 11.3 4.7 18.5 7.5 7.2 2.9 17.7 6.9 23.5 9 5.8 2.1 12.5 4.1 15 4.5 2.5 0.4 5.7 0.5 7.3 0.1 2-0.4 3.3-1.9 5.3-5.9 1.6-3.2 2.3-6.1 2-7.5-0.3-1.2-3.4-4.4-6.8-7.1-3.5-2.6-22.5-16.9-42.3-31.8-19.8-14.8-40.3-30.1-45.5-33.9-5.2-3.9-18.9-14-30.5-22.4-11.6-8.5-27.5-20.2-35.5-26-8-5.9-26-19-40-29.2-14-10.1-40.8-29.6-59.5-43.3-18.7-13.7-41.9-30.5-51.5-37.5-9.6-7-26.3-19.1-37-27-10.7-7.9-24-17.6-29.5-21.7-5.5-4-32.3-23.5-59.5-43.4-27.2-19.9-62.6-45.8-78.5-57.4-15.9-11.7-42.5-31.1-59-43.2-16.5-12-39.9-29.1-52-37.9-12.1-8.9-34.6-25.3-50-36.5-15.4-11.3-34.7-25.4-43-31.4-8.2-5.9-19-13.8-24-17.5-4.9-3.6-18.8-13.8-30.8-22.5-12-8.8-24.9-18.3-28.7-21-3.7-2.8-12.4-9-19.2-13.9-6.7-5-24.7-18-39.8-29.1-15.1-11.1-39.4-28.8-54-39.5-14.6-10.7-34.6-25.3-44.5-32.5-9.9-7.3-30.8-22.5-46.5-34-15.7-11.5-33-24.2-38.5-28.3-5.5-4.1-12.2-8.5-15-9.7-2.7-1.2-21.7-9.9-42-19.3-20.3-9.3-54.8-25.2-76.5-35.2-21.7-10.1-51-23.5-65-30-14-6.4-39-17.9-55.5-25.5-16.5-7.6-38.3-17.6-48.5-22.2-10.2-4.7-33.3-15.3-51.5-23.5-18.2-8.3-47.1-21.3-64.2-28.9-17.2-7.7-31.6-13.9-32.1-13.9-0.4 0-2.7 1.3-5.2 2.8-2.5 1.6-5.7 4.3-7.2 6zm2160.7 116.8c-24.2 5.6-54.3 12.8-67 15.9-12.6 3.1-36.5 9-53 13.1-16.5 4.1-37.6 9.6-47 12.1-9.3 2.4-18.1 5.1-19.5 5.8-1.4 0.7-4.7 1.6-7.5 2-2.7 0.3-5.9 1.2-7 2-1.6 1.1-2 2.5-2 7.2 0 4.5 0.6 6.6 2.4 9.3 1.3 1.9 4.3 5.4 6.5 7.8 2.3 2.3 4.4 4.2 4.9 4.2 0.4 0 0.7-0.7 0.7-1.5 0-0.8 0.8-1.5 1.8-1.5 0.9 0 7.8 2 15.2 4.5 7.4 2.4 23.6 7.4 36 11 12.4 3.7 28.6 8.5 36 10.6 7.4 2.2 27 7.8 43.5 12.5 16.5 4.6 33.2 9.3 37 10.4 3.9 1.1 21.9 6 40 11 18.2 5 42 11.6 53 14.6 11 3 32.2 8.9 47 13l27 7.6c33.3-5.6 53.6-9 66.5-11.3 12.9-2.2 26.5-4.7 30.3-5.5 3.7-0.8 6.9-1.4 7.2-1.4 0.3 0 0.3 0.7 0 1.5-0.3 0.8-0.2 1.5 0.3 1.5 0.4 0 12.4-2 26.7-4.5 14.3-2.5 31-5.4 37-6.4 6.1-1.1 24.3-4.3 40.5-7.1 16.2-2.8 44.1-7.6 62-10.6 17.9-3 41.1-7.1 51.5-9 10.5-2 19.3-3.7 19.8-4 0.4-0.2 0.7-4.9 0.7-10.4 0-7.5-0.4-10.9-1.7-13.6-1-2.1-2.9-4.5-4.3-5.5-1.4-0.9-6.1-2.9-10.5-4.4-4.4-1.4-18.6-5.2-31.5-8.5-12.9-3.3-31.1-7.7-40.5-9.9-9.3-2.1-18.8-4.2-21-4.5-3-0.5-4.4-0.3-5.5 0.9-1 1.1-2.6 1.5-4.5 1.2-1.6-0.3-6.8-1.7-11.5-3.1-4.7-1.5-17.5-5.2-28.5-8.2-11-3-39.8-10.4-64-16.5-24.2-6-49.2-12.4-55.5-14-6.3-1.7-13.1-3.7-15-4.4-1.9-0.7-7.1-1.8-11.5-2.5-4.4-0.6-17-3.2-28-5.6-11-2.5-27-6.1-35.5-8-8.5-1.9-24.8-5.5-36.2-8-11.5-2.4-21.6-4.3-22.5-4.3-1 0.1-5.6 1-10.3 2.1-4.7 1.1-28.3 6.7-52.5 12.4zm1435.5 4.9c-8 1.5-27.3 5.1-43 8.1-15.7 3.1-37.9 7.3-49.5 9.5-11.5 2.2-30 5.7-41 7.9-11 2.1-39.1 7.5-62.5 12-23.4 4.5-60.7 11.7-83 16-22.3 4.4-53.5 10.4-69.5 13.5-15.9 3.1-39.1 7.6-51.5 10-12.4 2.4-42.5 8.3-67 13-24.5 4.7-55.7 10.8-69.5 13.5-13.7 2.7-45.9 9-71.5 14-25.6 5-54.1 10.6-63.5 12.5-9.4 1.9-41.3 8.2-71 14-29.7 5.9-69.3 13.7-88 17.5-18.7 3.8-34.8 7.1-35.7 7.4-1 0.3-1.8 1.1-1.8 1.6 0 0.5 1.5 5.4 3.4 10.7 1.9 5.4 6.8 18.1 10.9 28.3 4.1 10.2 11.3 27.3 15.9 38 4.7 10.7 13.3 30.1 19.2 43 5.8 12.9 12.3 26.4 14.4 30l3.8 6.5c6.9-0.2 15.4-2.2 23.4-4.5 8-2.3 22.6-6.9 32.5-10.2 9.9-3.3 30.6-10.4 46-15.8 15.4-5.4 41.3-14.6 57.5-20.4 16.2-5.7 36.3-12.9 44.5-16 8.3-3 25.8-9.3 39-14.1 13.2-4.8 30.5-11.1 38.5-14 8-3 23.3-8.6 34-12.5 10.7-3.9 29.4-10.7 41.5-15.2 12.1-4.4 29.6-10.9 39-14.4 9.4-3.4 24.4-9 33.5-12.3 9.1-3.3 35.2-12.8 58-21.1 22.8-8.3 46.2-16.9 52-19 5.8-2.1 19.3-7.1 30-11 10.7-3.9 25.6-9.4 33-12.2 7.4-2.7 34.9-12.8 61-22.4 26.1-9.5 69.1-25.2 95.5-34.9 26.4-9.7 53.4-19.6 60-22 6.6-2.3 15.6-5.7 20-7.5 4.4-1.7 9.7-4.2 11.8-5.6 2-1.3 4.6-4.2 5.7-6.4 1.2-2.4 2-6 2-8.8 0-2.6-0.5-6.5-1-8.7-0.5-2.2-1.7-4.6-2.7-5.3-1-0.7-3.6-1.2-5.8-1.1-2.2 0-10.7 1.4-19 2.9-8.2 1.6-21.5 4.1-29.5 5.5zm-1752 152.5c-6.2 6.1-7.8 8.5-9.2 13-1.4 4.5-3.3 7.2-10.5 14.9-4.8 5.1-8.9 8.9-9 8.2-0.2-0.6 2.6-5 6.2-9.9 3.6-4.8 6.5-9.3 6.5-10 0-0.6-0.6-1.2-1.2-1.2-0.7 0-4.7 2.8-8.8 6.3-4.1 3.5-10 9.2-13.1 12.8-3 3.5-6.4 7.7-7.5 9.4-1.1 1.7-2.6 4.8-3.2 7q-1.1 4-7.1 10c-3.3 3.3-6.3 5.7-6.6 5.2-0.3-0.4 0.9-2.6 2.5-5 1.7-2.3 3-4.5 3-5 0-0.4-0.7-0.9-1.5-1.2-0.8-0.3-3 0.2-4.7 1-1.8 0.8-6.4 4.2-10.2 7.7-3.8 3.5-8.7 9-10.8 12.3-2.1 3.3-4.3 7.6-4.8 9.5-0.5 2.2-3.5 6.3-7.8 11-3.9 4.1-7.2 7.3-7.6 7-0.3-0.3 0.8-2.5 2.4-5 1.7-2.5 3-5.3 3-6.3 0-0.9-0.8-1.7-1.7-1.7-1 0-3.6 1.1-5.8 2.6-2.2 1.4-6.9 5.4-10.3 8.7-3.5 3.4-8.5 8.9-11 12.2-2.5 3.3-5.2 8-6 10.5-0.7 2.5-2.8 6.3-4.5 8.4-1.8 2.2-3.3 3.4-3.4 2.8-0.2-0.7 0.9-3 2.5-5.2 1.5-2.2 2.3-4.4 1.9-4.8-0.5-0.4-2.5 0.2-4.5 1.3-2 1.1-4.2 3.1-4.9 4.5-0.7 1.4-1.7 5.2-2.3 8.5-0.7 3.9-1.6 6.3-2.8 6.9-0.9 0.5-3 2.4-4.7 4.1-1.6 1.7-4.9 7-7.2 11.6-2.2 4.6-5.1 11.3-6.4 14.9-1.6 4.7-2.3 8.8-2.3 14.7-0.1 8-0.2 8.2-2.6 8.5-1.7 0.2-4 2.3-7.5 7-2.7 3.6-8 12.2-11.7 19-3.7 6.8-9.2 17.9-12.1 24.8-3 6.9-6.2 15.7-7.2 19.5-1.7 6.5-1.7 7.2-0.1 10.2 0.9 1.8 1.6 3.4 1.6 3.5 0 0.2-1.3 0.6-3 1-2.1 0.6-4.4 2.7-7.7 7-2.6 3.5-7.8 12.1-11.5 19.3-3.7 7.2-7.8 16-9.2 19.7-1.5 3.8-2.6 8.1-2.6 9.8 0 2.3 1 3.8 4.3 6.4 2.3 1.9 6.9 4.7 10.2 6.2l6 2.7c10.1-5.1 33-18.6 57.5-33.3 24.5-14.7 62.7-37.9 85-51.5 22.3-13.6 46.8-28.6 54.5-33.3 7.7-4.6 16.7-10.1 20-12.2 3.3-2 12.1-7.5 19.5-12 7.4-4.6 34.9-21.6 61-37.8 26.1-16.3 52.5-32.7 58.5-36.5 6.1-3.9 18-11.4 26.5-16.7 8.5-5.3 27.2-17 41.5-26 14.3-9 33-21 41.5-26.7 8.5-5.7 16.4-11 17.5-11.8l2-1.5c-3.1-2.3-9.4-5.2-16-7.9-6.6-2.7-18.7-7.2-27-10-8.2-2.7-24.4-7.9-36-11.5-11.5-3.6-28.6-8.8-38-11.6-9.3-2.9-22.6-6.9-29.5-9-6.9-2.1-26.7-8.2-44-13.5-17.3-5.3-34.2-10.5-37.5-11.6-3.3-1.1-6.4-1.9-7-1.9-0.5 0-4.4 2.8-8.5 6.3-4.1 3.4-10.9 9.6-15 13.7zm356.5 138.8c-3.3 1-7.9 3.1-10.2 4.5-2.4 1.5-5.2 4.2-6.3 5.9-1.1 1.8-2 4.5-2 6 0 1.8-0.6 3-1.7 3.4-1 0.3-3.3 1.2-5 2-1.8 0.8-4.5 3.2-6 5.3-1.6 2.1-3.4 4.7-4.1 5.7-0.9 1.3-1.4 1.5-1.7 0.6-0.3-0.6-1.2-1.2-2-1.2-0.8 0-2.1 1.2-2.9 2.7-0.8 1.6-1.9 6.2-2.5 10.3-0.7 4.1-1.2 11.5-1.2 16.5 0.1 4.9 0.7 11.2 1.4 14 0.8 2.7 2.2 6.8 3.3 9 1 2.2 3.3 5.3 5 7 1.8 1.6 3.8 3.6 4.5 4.4 0.8 0.7 5.5 5.4 10.5 10.5 5.7 5.7 11.3 10.3 15 12.2 3.2 1.7 9.7 4.4 14.4 6 6.7 2.2 10.3 2.8 17 2.7 4.9 0 11.3-0.8 15-1.8 3.6-1 10.1-3.5 14.5-5.5 4.4-2.1 10.2-5.8 12.9-8.2 4-3.5 6.2-7 12.3-19.3 4.7-9.5 7.8-17.2 8.4-21 0.6-3.3 0.8-9.3 0.5-13.3-0.3-3.9-1.3-10.5-2.2-14.5-0.9-3.9-2.9-9.8-4.5-13-1.7-3.2-6.3-9.2-10.6-13.8-4.3-4.5-10.9-10.2-14.8-12.7-3.8-2.5-9-5.2-11.5-5.9-2.5-0.7-10.1-1.5-17-1.8-6.9-0.2-14.7 0-17.5 0.5-2.7 0.5-7.7 1.7-11 2.8zm362.5 4.4c1.9 0.4 15 1.2 29 1.9 14 0.7 28.1 0.9 31.3 0.6 3.1-0.4 5.7-1.2 5.7-1.7 0-0.5-1.2-1.2-2.7-1.5-1.6-0.3-14.7-0.7-29.3-0.9-14.6-0.2-29-0.1-32 0.3-5.3 0.6-5.4 0.6-2 1.3zm-173 8c-1.8 3.5-4 7.1-4.9 8.2-0.9 1-2.3 3.9-3.1 6.5-1.1 3.4-2.5 5.3-5.3 7.1-3.3 2.2-3.7 2.9-3.2 5.5 0.4 1.8 0 4.6-0.9 6.7-0.9 2.1-1.6 4-1.6 4.3 0 0.3 1.7 0.2 3.8-0.1 3.4-0.6 3.5-0.5 1.7 0.8-1.1 0.8-3.9 2-6.2 2.6-2.6 0.7-5.3 2.4-6.8 4.2-1.4 1.7-2.5 4.1-2.5 5.5 0 1.4 0.2 2.5 0.5 2.5 0.3 0 2.3-0.9 4.5-2 2.8-1.4 4-1.6 4-0.8 0 0.7-1 2.3-2.2 3.5-1.7 1.6-3.5 2.3-6.6 2.3-3.2 0-4.9 0.6-6.7 2.5-1.4 1.4-3.8 5.4-5.5 9-1.6 3.6-2.9 7.1-2.7 7.7 0.2 0.9 1.8 1.2 4.3 1 3.5-0.3 3.8-0.2 2.4 1.2-0.8 0.9-10.7 5.5-22 10.2-11.3 4.7-25 10.3-30.5 12.4-5.5 2.1-13.6 4.7-18 5.9-4.4 1.1-11.4 3.4-15.5 5.1-4.1 1.7-12.2 4.9-18 7.1-5.8 2.2-11.6 4.8-13 5.8-1.4 1-4.5 2.1-7 2.5-2.5 0.4-6.4 1.8-8.7 3.2-2.4 1.3-5 3.8-5.9 5.6-1.4 2.8-1.4 4.3-0.5 9.8 0.7 3.6 2.9 12.3 5.1 19.5 2.1 7.2 4.5 15.7 5.4 19 0.8 3.3 2.2 10.9 3 17 0.9 6.1 2.7 14.6 4.2 19 1.4 4.4 3.5 9.5 4.7 11.3 1.7 2.7 2.7 3.3 4.5 2.8 2-0.6 2.3-0.1 3.2 5.1 0.6 3.2 2.6 12.9 4.5 21.5 1.9 8.7 3.5 18.2 3.5 21 0 2.9 0.7 8.5 1.5 12.3 0.8 3.8 2.9 11 4.7 15.8 1.8 4.9 4.5 10.1 6.1 11.8 2.3 2.5 2.7 3.8 2.7 8.6 0 3.2 0.5 8.7 1 12.3 0.5 3.6 1.9 8.4 3 10.7 1.5 3.2 2.3 4 3.3 3.3 0.8-0.7 1.6-0.2 2.7 1.5 0.8 1.4 1.8 2.5 2.3 2.5 0.4 0 4-2.6 8-5.9 3.9-3.2 15.3-14.1 25.3-24.2 9.9-10.1 18.8-19.6 19.7-21.2 0.9-1.5 2.2-2.7 2.7-2.7 0.6 0 0.3 1.1-0.5 2.5-0.8 1.4-1.3 2.7-1 3 0.3 0.3 3-1.9 6.2-4.8 3.1-2.8 7.6-7.9 10.1-11.2 2.4-3.3 8.1-9.3 12.6-13.4 4.4-4.1 20-18.7 34.6-32.6 14.6-13.9 30.1-28.3 34.5-32.1 4.3-3.8 11.8-10.5 16.5-14.9 4.7-4.3 26.1-25.3 47.6-46.5 25-24.6 39.8-39.9 41-42.4 1.1-2.2 5.7-7.3 10.4-11.6 4.7-4.2 13.7-12 20-17.4 6.3-5.5 20-17.8 30.5-27.5 10.4-9.7 23.1-22.3 28.2-28.1 5.1-5.8 10-12 10.8-13.8 0.8-1.7 1.3-3.7 1-4.2-0.3-0.5-1.1-1-1.7-1-0.7 0-3 2.3-5.1 5.2-2.7 3.6-4.2 5-4.8 4.2-0.6-0.7 0.2-3.2 2.3-7.1 2.8-5.2 3.2-6.5 2.3-8.9-0.8-2.3-2.1-3.3-6-4.6-3.3-1.1-11.4-2-24-2.7-10.4-0.6-47.1-1.6-81.5-2.1-34.4-0.5-76.7-1-94.1-1h-31.7zm-1124.7 66.2c-0.8 1.8-1.2 4.3-0.9 6 0.3 1.7 2.5 5.7 4.8 9 2.3 3.3 10.8 14.1 18.8 24 7.9 10 24.4 30 36.5 44.5 12.1 14.6 35.3 42.1 51.6 61 16.3 19 35.9 41.3 43.6 49.5 7.7 8.3 16.7 17.4 19.9 20.3 3.5 3.1 6.9 5.3 8.2 5.3 1.9 0 2.1 0.3 1.5 2.2-0.4 1.2-0.7 3.8-0.7 5.7 0.1 2 1.4 5.8 3 8.5 1.6 2.8 4.3 6.6 6 8.5 1.7 2 4.9 4.4 7.1 5.4 3.1 1.5 4.4 1.6 6.9 0.7 1.6-0.6 3.1-0.8 3.2-0.5 0.1 0.2-0.3 1.9-0.9 3.7-1 2.7-0.9 4 0.6 7.7 0.9 2.5 3.5 6.9 5.6 9.8 2.2 2.9 5.6 6.4 7.7 7.8 3.1 2.1 4.5 2.5 8 2 4.1-0.5 4.2-0.4 3.5 1.7-0.4 1.2-0.7 3.4-0.6 4.7 0 1.4 0.9 4.6 2.1 7 1.2 2.5 4.1 6.7 6.4 9.4 2.4 2.7 5.7 5.6 7.4 6.4 1.9 1 4.3 1.3 6.7 0.9l3.8-0.7c-1.1 8.2-0.8 10.7 0.4 13.5 1 2.2 3.2 5.9 5 8 1.8 2.2 4.9 5.3 6.9 6.8 2.1 1.5 6 3.2 8.9 3.7 4.3 0.9 6 1.9 9.5 5.5 2.3 2.5 4 5 3.8 5.5-0.4 0.7-1.6 0.6-3.5-0.2-2.3-1-3.3-1-4.3-0.1-1 1-0.9 1.8 0.8 4.2 1.1 1.7 5.3 7.9 9.3 13.8 4.7 6.9 12.5 21.3 21.4 39.3 7.7 15.7 15.8 31.2 18.1 34.5 2.3 3.3 5 6.2 6.1 6.5 1 0.3 2.2 1.6 2.7 2.8 0.5 1.2 0.9 4.4 0.9 7 0 3.1 1.9 10.4 5.5 21.2 3.1 9.1 9.3 25.5 13.7 36.5 4.4 11 11.8 28.6 16.5 39 4.6 10.5 11.3 24.6 14.8 31.3 4.5 8.5 7.3 12.8 9.4 14 2.5 1.5 2.9 2.5 3.5 7.7 0.3 3.4 2.6 12.1 5.2 19.5 2.5 7.5 7.9 21.9 12.1 32 4.2 10.2 11.2 26.4 15.7 36 4.5 9.7 9.8 20.1 11.9 23.3 2 3.2 4.2 5.6 4.9 5.5 0.7-0.2 10.7-19.2 22.3-42.3 11.5-23.1 29.2-59.5 39.2-81 9.9-21.4 25.6-55.4 34.8-75.5 9.1-20 23.9-52.2 32.7-71.5 8.8-19.2 28.1-61 42.8-93 14.7-31.9 31.9-69.2 38.2-83 6.3-13.7 19.5-42.3 29.3-63.5 9.7-21.1 22.9-49.9 29.2-64 6.3-14 14.6-32.4 18.5-41 3.8-8.5 11.2-25.6 16.4-38 5.3-12.3 11.2-27 13.3-32.5 2.1-5.5 4.4-12.3 5.2-15.1l1.4-5.1c-6.2-7.4-9.2-10-10.5-10.5-1.4-0.5-4.8-0.7-7.5-0.5-2.8 0.3-6.3 1.3-7.9 2.4-1.6 1-3.5 3.1-4.3 4.6-0.7 1.5-1.3 4.4-1.3 6.5 0 2.6-0.7 4.4-2.3 6-1.2 1.2-2.8 2.2-3.5 2.2-0.8 0-1-0.8-0.7-2.2 0.4-1.2 0.8-3.3 1-4.5 0.3-1.2 0.1-2.3-0.3-2.3-0.4 0-5 2.6-10.2 5.9-5.3 3.2-14.5 9.1-20.5 13.1-6.1 4.1-16.9 11.8-24 17.1-7.2 5.3-14.5 11.3-16.3 13.3-2 2.3-3.2 4.7-3.2 6.4 0 1.5-0.9 4-2 5.5-1.1 1.5-2.7 2.7-3.5 2.7q-1.5 0-1-2c0.2-1 0.7-2.9 1-4 0.2-1 0-2-0.5-2-0.6 0-2.5 0.8-4.3 1.7-1.8 0.9-12.2 7.6-23.2 14.8-11 7.2-35.1 23.5-53.5 36-18.5 12.6-49.3 33.7-68.5 46.9-19.3 13.2-48.5 33.1-65 44.2-16.5 11.1-37.7 25-47 30.9l-17 10.8c-4.7-2.8-12.1-7.9-19.5-13.1-7.5-5.2-21-14.9-30-21.5-9.1-6.6-55.7-41.4-103.5-77.3-47.9-35.9-96.3-72.4-107.5-81-11.3-8.6-36.7-27.9-56.5-42.9-19.8-14.9-40.3-30.2-45.5-33.8-5.3-3.7-10.3-6.7-11.1-6.7-0.9 0-3.8 2-6.4 4.3-2.7 2.3-5.5 5.6-6.3 7.2zm848.1 17.1c-1.6 1.2-4.3 4.6-6.1 7.5-1.8 3-4.3 6-5.5 6.6-1.2 0.6-3.3 3.3-4.6 6-1.3 2.7-3.7 8.9-5.3 13.8-1.6 5-3.4 12-4 15.5-0.5 3.6-2.2 12-3.6 18.5-1.9 9.1-2.4 13.7-2 18.5 0.4 3.6 1 7.4 1.4 8.4 0.8 1.7 0.5 1.8-2.1 1.2-1.7-0.4-3.9-0.5-5-0.2-1.2 0.3-3 2.6-4.3 5.3-1.2 2.7-2.9 7.5-3.7 10.8-0.8 3.4-1.6 8.5-1.6 11.5-0.1 3.1 0.1 7.2 0.4 9.3 0.6 3.7 0.6 3.7-2.8 3.7-1.9 0-4.2 0.8-5.1 1.8-1 1-2.6 3.8-3.7 6.2-1 2.5-3.2 9.3-4.8 15-1.7 5.8-3.3 13.7-3.6 17.5-0.3 4-0.1 8.8 0.5 11 0.6 2.2 1 4.2 0.9 4.3-0.1 0.2-1.5-0.2-3-0.7q-2.7-1.1-4.7-0.1c-1.1 0.6-3.1 3.4-4.5 6.3-1.3 2.9-3.1 8.7-4 13-0.8 4.3-1.6 9-1.6 10.5 0 1.5 0.7 4.7 1.5 7l1.6 4.2c-8.3-1.2-8.7-1-10.7 2.2-1.2 1.8-3.5 7.2-5.1 11.8-1.7 4.7-3.8 12-4.6 16.3-0.9 4.3-1.7 10.1-1.8 13 0 2.9 0.2 6.6 0.5 8.2 0.7 3 0.6 3-3.6 3-4.2 0-4.3 0.2-6.9 5.5-1.5 3.1-3.5 9.4-4.4 14-0.9 4.7-1.4 10.4-1.1 12.5 0.3 2.2 0.9 5.1 1.3 6.4l0.9 2.4c-7.8-3.3-10.3-4-10.5-3.7-0.3 0.3 0.2 3.4 1.2 7 1 3.5 1.8 6.9 1.8 7.4 0 0.6-1.6 1.7-3.5 2.5-2.7 1.2-4.1 2.8-6 6.8-1.3 2.9-2.9 7.3-3.5 9.7-0.7 2.6-1.1 9.2-0.9 15.3 0.3 10.4 0.3 10.7-1.6 10-1.1-0.3-3.2-0.6-4.5-0.5-1.4 0.1-2.9 0.7-3.3 1.5-0.4 0.7-1.2 2.8-1.7 4.7-0.6 2-1 4.8-1 6.3 0 1.5 0.5 4.8 1.2 7.2 0.7 2.5 1 4.8 0.8 5.1-0.3 0.3-2.2-0.3-4.3-1.3-2-0.9-3.9-1.5-4.2-1.3-0.3 0.3 0.1 3.5 0.9 7 0.9 3.6 1.5 7.1 1.5 7.8 0.1 0.9-1 1.1-4 0.5-2.5-0.5-4-0.4-4 0.2 0.1 0.6 0.7 3.5 1.6 6.5 0.8 3.1 1.4 6.3 1.4 7.3 0 1-1 2.1-2.2 2.6-1.2 0.5-3 1.8-3.8 2.8-0.9 1-2.8 3.9-4.2 6.3-1.4 2.5-4.7 9.7-7.2 16-2.6 6.4-6.2 16.5-8 22.5-1.8 6.1-3.9 14.2-4.6 18-0.9 5.1-1 7.9-0.2 10 0.6 1.7 1.4 3.9 1.9 5 0.8 1.8 0.5 1.9-2.9 1.2-3.4-0.6-4-0.4-6.2 2.6-1.4 1.8-4 7.7-6 13.2-1.9 5.5-4.2 13.9-5.1 18.5-1 5-1.5 10.6-1.2 13.5 0.3 2.8 1 5.9 1.4 7 0.8 1.7 0.5 1.8-2.6 1.2-2.8-0.6-4-0.4-5.4 1-1 1-3.6 5.2-5.6 9.3-2.1 4.2-6.1 13.6-8.9 21-2.7 7.5-6.8 19.6-9.1 27-2.2 7.5-4.6 16.8-5.3 20.8-1.1 6.3-1 8 0.3 11.8l1.5 4.4-9-0.5c-4.7 9.4-7.1 16.5-8.3 21.8-1.2 5.4-2.2 11.3-2.2 13.2 0 2 0.4 4.8 1 6.3 0.6 1.5 2.3 4 3.8 5.5 1.4 1.5 3.8 3 5.2 3.3 1.5 0.4 5-0.4 9-2 3.5-1.4 11.2-5.4 17-8.7 5.7-3.4 20.1-12.6 32-20.6 11.8-8 37-25.2 56-38.4 18.9-13.2 43.7-30.5 55-38.5 11.2-7.9 24.5-17.3 29.5-20.7 4.9-3.4 24-16.9 42.5-30 18.4-13 35.4-25.2 37.7-27.2 4-3.3 4.5-4.2 9.2-19.2 2.7-8.7 8.3-27.4 12.4-41.8 4.1-14.3 12.2-43 18-64 5.7-20.9 14.4-52.4 19.2-70l8.7-32c-26.7-114.6-38.7-165.7-43.8-187.5-5.2-21.7-13.7-57.7-18.9-80-5.3-22.2-10.1-41-10.8-41.7-0.7-0.8-1.9-1.3-2.7-1.2-0.9 0.1-5 0.7-9.2 1.3-4.7 0.7-8.8 2-10.5 3.2zm724.2 19.7c-8.8 5.9-18.1 12.1-20.5 13.8-2.5 1.8-11.7 8.2-20.5 14.2-8.8 6.1-21.4 15.1-28 20.1-6.6 4.9-14.3 11.1-17 13.6-2.8 2.6-6.4 5.4-8 6.3-1.7 0.8-4.2 1.9-5.5 2.3-1.9 0.6-2.3 0.5-1.8-0.4 0.4-0.6 0.3-1.2-0.2-1.2-0.6 0-1.8 1.4-2.8 3-1 1.6-3.8 4.3-6.2 5.9-3.6 2.5-4.8 2.8-5.8 1.9-1-1-1.6-0.8-2.7 0.7-0.8 1.1-1.5 2.4-1.5 2.8 0 0.4-2 2.1-4.3 3.8-2.3 1.6-4.6 3-5 3-0.4 0-0.7-0.7-0.7-1.6 0-1.3-0.3-1.3-2.3 0-1.2 0.8-2.9 2.6-3.7 4.1-0.9 1.5-4.9 5.1-9 7.9-4.2 2.9-9.3 6.2-11.5 7.3-2.2 1.1-12.6 7.8-23 14.8-10.5 7-21.1 13.9-23.7 15.4-2.6 1.4-9.6 5.9-15.5 10-6 4.2-24.6 16.5-41.3 27.5-16.8 11-46.1 30.4-65.3 43-19.1 12.7-45.5 30.1-58.7 38.8l-24 15.7c0 19.9-0.5 25.3-1 25.5-0.6 0.3-1.3-0.7-1.6-2.2-0.4-1.5-0.8-3.4-1.1-4.3q-0.4-1.4-1.3-0.5c-0.5 0.6-1.6 10.5-2.5 22-0.8 11.6-2 32.7-2.5 47-0.6 14.4-1 47.4-1 73.5 0 26.2 0.4 58.4 1 71.5 0.6 13.2 1.4 31 1.8 39.5 0.7 13.4 0.6 15.8-0.8 17.4-1.4 1.6-1.5 6.6-1 41.7 0.2 21.9 0.1 39.5-0.2 39.1-0.4-0.3-1.2-9.4-1.7-20.2-0.6-10.7-1.3-25.8-1.6-33.5-0.3-7.6-0.8-16.8-1.1-20.2-0.2-3.4-0.9-6.3-1.4-6.3-0.7 0-0.9 30-0.6 88.8 0.3 62.2 0.7 90.2 1.5 93.7 0.7 2.8 1.7 5.6 2.4 6.3 0.6 0.7 4.1 1.5 7.7 1.9 3.9 0.3 7.3 0.1 8.7-0.6 1.2-0.6 3.4-2.9 4.8-5.1 1.3-2.1 4.5-8.8 7.1-14.7 2.5-5.9 14.8-36.2 27.3-67.3 12.6-31 31.6-78.3 42.3-105 10.8-26.6 23-57 27.3-67.5 4.2-10.4 15.4-37.6 25-60.5 9.5-22.8 21.1-50.2 25.7-61 4.7-10.7 10.3-23 12.5-27.5 2.2-4.4 5.9-10.9 8.2-14.5 2.2-3.5 4.1-7 4.1-7.7 0-0.7-1.6-1.4-3.5-1.5l-3.5-0.3c10.4-11.4 14.4-15.2 15.5-15.8 1.7-0.9 1.9-0.8 1.2 1.2-0.5 1.4-0.3 2.2 0.5 2.2 0.7 0 3.3-2.1 5.8-4.8 2.6-2.6 6-7 7.8-9.8 1.7-2.7 3.4-6.8 3.8-9 0.3-2.1 1.2-5.2 2-6.7 0.7-1.5 2.8-3.9 4.6-5.2 1.8-1.4 3.8-2.5 4.5-2.5 0.9 0 1 0.5 0.3 1.9-0.6 1.1-0.8 2.4-0.5 2.8 0.3 0.4 2.1-0.8 4.1-2.8 2-1.9 6.2-6.8 9.3-11 3.2-4.1 11.4-13.3 18.2-20.5 6.8-7.1 18.7-19.9 26.4-28.5 7.7-8.5 20.1-22.4 27.5-31 7.4-8.5 17.6-20.2 22.5-26 5-5.7 14.9-17.4 22-25.9 7.1-8.5 19.4-23.1 27.3-32.5 7.9-9.4 26.7-31.8 41.8-49.8 15-18 29.4-35.6 31.9-39 2.5-3.4 4.5-7.3 4.5-8.5 0-1.2-0.8-3.9-1.6-6-0.9-2.1-4.4-6.6-7.8-10-3.4-3.5-6.6-6.3-7.1-6.3-0.6 0-5.5 2.9-11 6.4-5.5 3.4-17.2 11.1-26 16.9zm-2409.9 74.6c-1.1 0.9-2.6 3.2-3.4 5.1-0.8 2.2-1.1 4.7-0.7 6.5 0.4 1.7 2.8 7.3 5.4 12.5 2.6 5.3 9 16.5 14.1 25 5.1 8.6 13 21.4 17.5 28.5 4.5 7.2 11.5 18.5 15.7 25 4.1 6.6 21.6 34.8 38.9 62.5 17.3 27.8 39.7 63.8 49.8 80 10.1 16.3 26.8 42.8 37.1 59 10.3 16.3 22.7 35.4 27.6 42.5 4.9 7.1 9.8 13.5 10.9 14.2 1.1 0.7 5.8 2.4 10.5 3.8 4.6 1.4 17.7 4.6 29 7 11.2 2.5 23.8 5.1 28 5.9 4.1 0.8 9.3 1.8 11.5 2.1 2.2 0.4 20.2 3.7 40 7.5 19.8 3.8 40.9 7.8 47 9 6 1.1 27.2 4.9 47 8.5 19.8 3.5 49.9 8.9 67 12 17 3 40.4 7.1 52 9 11.5 2 27 4.7 34.5 6 7.4 1.4 26.5 4.7 42.5 7.5 15.9 2.8 37.5 6.6 48 8.5 10.4 1.9 26.8 4.8 36.5 6.5 9.6 1.7 52.6 9.1 95.5 16.6 42.9 7.4 82.9 14.4 89 15.5 6 1.1 32.8 5.8 59.5 10.5 26.6 4.7 64.9 11.4 85 14.9 20 3.5 38 6.5 40 6.6 1.9 0.1 4 0.1 4.7 0.1 0.7-0.1 1.9-3.2 2.8-7.2 0.8-3.8 1.5-8.6 1.5-10.7 0-3.1-0.6-4.4-3.7-7.3-2.1-1.9-6.8-5.2-10.3-7.2-3.6-2-14.4-7.3-24-11.8-9.7-4.5-19.6-9-22-10.2-2.5-1.1-18-8.3-34.5-16-16.5-7.7-36.6-17.1-44.5-20.8-8-3.7-22.2-10.3-31.5-14.7-9.4-4.4-27.8-13.1-41-19.2-13.2-6.2-31.7-14.9-41-19.3-9.4-4.4-27.2-12.8-39.5-18.5-12.4-5.8-29.1-13.5-37-17.3-8-3.7-36.4-16.9-63-29.5-26.7-12.5-65.2-30.5-85.5-40-20.4-9.5-45.4-21.1-55.5-25.9-10.2-4.8-37-17.3-59.5-27.8-22.6-10.4-57.5-26.7-77.5-36-20.1-9.4-46.4-21.6-58.5-27.3-12.1-5.6-35.8-16.6-52.5-24.4-16.8-7.8-37.3-17.4-45.5-21.3-8.3-3.9-20.2-9.4-26.5-12.3-6.4-2.9-22.8-10.5-36.5-16.9-13.8-6.5-39.9-18.6-58-27.1-18.2-8.4-52.2-24.1-75.5-34.9-28.6-13.2-44-19.9-47-20.2-3.4-0.4-5.5 0.1-8.5 1.7-2.2 1.2-4.9 2.9-5.9 3.8zm322.1 480.2c-1.1 3.2-1.8 8.4-1.8 12.7l0.1 7.2c18.9 13.7 38.9 28 56.5 40.7 17.6 12.6 47.7 34.2 67 47.9 19.2 13.7 38.3 27 42.5 29.5 6.7 4 9 4.8 22 7.3 7.9 1.5 16.5 3.2 19 3.7 2.4 0.5 29 5 59 9.9 29.9 4.9 61.4 10.1 70 11.5 8.5 1.4 19.7 3.2 25 4 5.2 0.8 19.8 3.1 32.5 5.1 12.6 2 25.4 4 28.5 4.5 3 0.4 19.6 3.1 37 5.8 17.3 2.8 36.2 5.8 42 6.7l10.5 1.6c14.7-4.1 27.5-8 38-11.3 10.4-3.3 25-7.9 32.5-10.3 7.4-2.4 24-7.8 37-11.9 12.9-4.1 36.5-11.6 52.5-16.6 15.9-5.1 30-10 31.4-10.9 2.4-1.6 2.4-1.8 1.9-14.2-0.3-6.8-1.1-13.5-1.7-14.7-0.7-1.3-2.7-2.6-4.9-3.2-2.1-0.5-7.1-1.6-11.2-2.5-4.2-0.8-23.3-4.2-42.5-7.5-19.3-3.3-59.6-10-89.5-15-30-4.9-96.8-16-148.5-24.5-51.7-8.5-96.5-16-99.5-16.5-3.1-0.6-12.3-2.2-20.5-3.5-8.3-1.4-35.5-5.9-60.5-10-25.1-4.1-63.5-10.5-85.5-14.1-22-3.6-48.4-7.8-58.5-9.5-10.2-1.6-30-4.7-44-6.9-14.1-2.2-26.6-4.3-27.8-4.6-1.6-0.3-3 0.2-4.5 1.9-1.2 1.3-3 4.8-4 7.7zm1402.9 36.7c-4.9 3.7-10.3 8.3-11.8 10.2q-2.9 3.5-3.6 8.4c-0.5 3.9-1.5 5.8-4.7 9.3-2.2 2.3-4.7 4.3-5.5 4.4-1.3 0-1.3-0.3 0.2-2.3 1-1.2 3-3.9 4.5-6 1.5-2.1 2.4-4.1 2-4.5-0.5-0.4-2.5 0.2-4.5 1.2-2 1.1-10 6.5-17.8 12-7.9 5.5-19.9 14.3-26.6 19.5-6.8 5.3-17.2 14.3-23.1 20-9 8.9-10.7 11-10.7 13.5 0 2.1-1.1 4.4-3.8 7.4-2 2.5-4.3 4.3-5 4-0.8-0.2 0-2.1 2.3-5.4 1.8-2.7 3.4-5.5 3.4-6.2 0-0.7-0.2-1.3-0.4-1.3-0.3 0-2.5 1.3-4.8 2.8-2.3 1.5-8.1 5.4-12.7 8.7-4.7 3.3-14.6 10.4-22 15.9-7.5 5.5-27.3 20.6-44 33.5-16.8 12.9-35.6 27.7-41.8 32.8-7.8 6.5-11.4 10.2-11.9 12.1-0.3 1.5-0.3 5.9 0.1 9.7 0.6 5.9 0.4 7.3-1 8.5-0.9 0.9-3.1 4.2-4.9 7.5-1.9 3.4-7 13.9-11.5 23.5-4.5 9.7-11.6 25.2-15.7 34.5-4.2 9.4-10.9 24.9-15 34.5-4.2 9.7-13.4 31.5-20.5 48.5-7.2 17.1-20.5 48.6-29.5 70-9.1 21.5-21.7 51-28 65.5-6.3 14.6-13.1 29-15.1 32-1.9 3.1-6.5 8.9-10.2 13-3.6 4-12.6 12.8-20 19.5-7.5 6.6-21.9 19.1-32 27.6-10.2 8.6-28.7 23.9-41 34.1-12.4 10.1-29.7 24.3-38.4 31.4-8.8 7.1-23.6 19.3-33 27-9.5 7.7-24.5 20.1-33.5 27.5-9.1 7.4-23.9 19.5-33 26.9-9.2 7.4-20.3 16.4-24.7 20-4.4 3.6-20.6 16.7-36 29.2-15.4 12.4-43.5 35.3-62.4 50.8-19 15.5-44.6 36.3-56.9 46.3-12.4 10.1-23.3 19.5-24.3 21-1.2 1.8-1.7 3.7-1.3 5.5 0.3 1.5 2.1 5 3.9 7.7 1.8 2.8 5 7 7.2 9.3l3.9 4.3c34.8-14.6 70.2-29.3 101-42.1 30.8-12.7 70.6-29.2 88.5-36.7 17.8-7.4 39-16.2 47-19.5 7.9-3.3 27.7-11.6 44-18.5 16.2-6.9 39.6-16.8 52-22 12.3-5.2 26.5-11.2 31.5-13.2 4.9-2.1 22.5-9.6 39-16.8 16.5-7.2 37.6-16.5 47-20.7 9.3-4.3 19.4-9 22.5-10.6 4.1-2.1 9.3-6.8 21.5-19.6 8.8-9.3 25.9-27.4 38-40.4 12.1-12.9 38.4-41.3 58.5-63 20.1-21.7 46.2-50 58-62.9 11.8-12.8 29.3-32 38.9-42.5 9.6-10.5 33.7-36.8 53.5-58.5 19.8-21.7 38.5-42.2 41.6-45.5 3-3.4 15.4-17.2 27.5-30.6 12.1-13.5 28.2-31.4 35.9-40 7.6-8.5 15.7-17.9 18.1-21 2.3-3 4.7-7.3 5.3-9.5 0.6-2.1 1.1-7.3 1.1-11.5 0-4.1-0.6-13.5-1.4-21-0.8-7.4-2.4-20-3.5-28-1.2-7.9-4.4-28.6-7.1-46-2.8-17.3-9.7-59.6-15.5-94-5.7-34.3-11.7-69-13.3-77-1.6-7.9-3.6-15.9-4.3-17.7l-1.3-3.3zm-1748.1 20.8c-6.6 0.8-16.8 2.2-22.5 3.1-5.8 0.8-25.6 3.7-44 6.4-18.5 2.7-38.3 5.6-44 6.5-5.8 0.9-22 3.3-36 5.4l-25.5 3.7c-26.4 13.7-40.3 21.1-48 25.4-7.7 4.2-20.6 11.2-28.5 15.4-8 4.3-23.3 12.6-34 18.3-10.8 5.8-20.4 11.3-21.4 12.2-1 0.8-3.2 4.3-4.9 7.6-1.7 3.3-8.3 17.9-14.8 32.5-6.4 14.5-13.3 30.3-15.2 35-1.8 4.6-3.7 9.7-4.1 11.2-0.4 1.8-0.2 3.1 0.6 3.7 0.7 0.5 8.7 2 17.8 3.4 9 1.4 22.8 3.5 30.5 4.6 7.7 1.1 20.9 2.9 29.5 4 8.5 1.1 37.1 4.8 63.5 8.1 26.4 3.3 54.3 6.9 62 7.8l14 1.8c103.8-102.4 144-142 156.3-154.1 12.3-12.1 26.8-26.5 32.1-32 5.4-5.5 10.6-11.6 11.5-13.5 1.3-2.5 1.6-4.7 1.2-7.5-0.3-2.3-1.9-5.6-3.5-7.5-1.6-2-4.4-4.4-6.2-5.5-2.6-1.5-5.6-2-11.9-2.2-5-0.2-15.7 0.8-25.5 2.1-9.4 1.4-22.4 3.2-29 4.1zm1280 155.6c-31.4 31.5-73.5 74.2-93.6 94.9-20.1 20.6-48.5 50.1-63.1 65.5-14.6 15.4-31.2 33.1-37 39.5-7.7 8.5-10.8 12.8-12.1 16.5-1 2.7-2 8.3-2.4 12.5-0.3 4.1-0.3 8.8 0.1 10.5 0.6 2.8 0.9 2.9 4.1 2.2 1.9-0.4 3.5-0.6 3.5-0.5 0 0.2-0.9 2.3-2 4.8-1.1 2.4-2.6 7.6-3.4 11.5-0.8 3.8-2.6 16.6-4 28.5-1.4 11.8-3.5 32.3-4.6 45.5-1.1 13.2-2.8 34.1-3.7 46.5-0.9 12.3-1.7 34.8-1.7 49.8l-0.1 27.4c6.9 6.1 11 8.5 13.5 9.3 2.4 0.8 4.9 1.5 5.5 1.5 0.5 0 2.8-1.2 5.1-2.8 2.3-1.5 11.5-9.7 20.4-18.2 8.9-8.6 30.7-30.6 48.4-49 17.7-18.5 36.2-37.9 41.1-43.2 4.9-5.3 18.9-20.3 31-33.4 12.1-13 27.8-30.3 34.9-38.3 7.1-8 15.6-18.2 18.8-22.6 3.3-4.4 7.5-11.1 9.4-14.8 1.8-3.7 5.1-12.7 7.3-20 2.1-7.3 9.4-32.8 16-56.7 6.7-24 17.1-60.9 23.1-82 5.9-21.2 15.1-54.1 20.3-73 5.2-19 10.6-39.5 12-45.5 1.5-6.1 2.9-13.7 3.3-17 0.5-4.6 0.2-6.8-1-9.3-1-1.9-4.2-4.9-7.9-7.3-3.4-2.2-6.8-4-7.5-4-0.7 0.1-4.7 3.2-9 6.9-4.3 3.8-33.4 32.7-64.7 64.3zm-1055.6-37.6c-8.4 7.7-25.5 23.4-37.9 35-12.5 11.5-35.2 32.7-50.6 47-15.4 14.3-32.7 30.5-38.4 36-5.8 5.5-31.7 29.7-57.5 53.9-25.9 24.2-55.4 51.9-65.5 61.6-10.2 9.6-34 32.2-53 50-18.9 17.9-38.9 36.7-44.5 41.9-5.5 5.2-27.6 26.1-49.1 46.5-21.5 20.4-58.8 56-83 79.1-24.2 23-51.5 49.5-60.7 58.7-16.1 16.2-16.7 16.9-16.1 20 0.4 1.8 1.5 5 2.5 7 1 2.1 3.1 4.7 4.6 5.8 1.9 1.4 4.3 2 7.8 2 2.7 0 8.8-0.5 13.5-1.1 4.6-0.6 15.4-2.4 24-4.1 8.5-1.6 26.3-5.4 39.5-8.3 13.2-3 32.7-7.4 43.5-9.9 10.7-2.5 26.7-6.1 35.5-8.1 8.8-2 21.8-5 29-6.7 7.1-1.6 23.1-5.5 35.5-8.5 12.3-3 28.1-6.8 35-8.3 6.8-1.6 32-7.5 56-13 23.9-5.6 53.1-12.4 65-15.1 11.8-2.7 24.2-5.6 27.5-6.4 3.3-0.8 16.5-4 29.5-7.1 12.9-3.1 32.2-7.5 43-10 10.7-2.4 28-6.4 38.5-8.8 11.8-2.8 21.8-5.8 26.5-7.9 4.1-1.9 54.9-25.4 113-52.2 58-26.9 114-52.8 124.5-57.6 10.4-4.8 31.1-14.3 46-21.2 14.8-6.9 35.5-16.5 46-21.5 10.4-4.9 30.2-14.2 44-20.5 13.7-6.3 38.9-18 56-26 17-8 43.1-20.2 58-27.2 14.8-7 45-21.6 67-32.4 22-10.9 43.8-22 48.5-24.9 4.6-2.8 10.4-6.8 12.7-8.7 3.6-3 4.3-4.1 4.3-7.3 0-2-0.7-6-1.5-8.7-0.8-2.8-2.2-5.7-3.2-6.5-0.9-0.9-4-1.9-6.8-2.3-2.8-0.4-19.7-2.7-37.5-5.2-17.9-2.4-41.8-5.6-53-7-11.3-1.4-34-4.1-50.5-6.1-16.5-1.9-51.2-5.9-77-8.9-25.9-3.1-53.3-6.2-61-7.1-7.7-0.8-21.5-2.4-30.5-3.4-9.1-1.1-21-2.4-26.5-3-5.5-0.6-12.5-1.6-15.5-2.2-3.1-0.5-9.4-2.1-14-3.5-4.7-1.4-16.9-5.4-27-8.9-10.2-3.4-32-11.1-48.5-16.9-16.5-5.9-44-15.6-61-21.5-17.1-5.9-32.6-11.3-34.5-12-2-0.7-13.9-4.8-26.5-9.1-12.7-4.4-23.3-8-23.6-8-0.3 0.1-1.9 1.1-3.6 2.3-1.7 1.3-10 8.6-18.4 16.3zm-1373 45.7c-0.9 1.2-2.2 3.8-2.8 5.8-0.7 1.9-1.2 5.2-1.2 7.2 0.1 3.4 0.5 4 4.3 6.2 2.3 1.3 8.5 4.2 13.8 6.4 5.2 2.2 17.6 6.9 27.5 10.5 9.9 3.6 30.6 10.8 46 16 15.4 5.2 47.5 16.1 71.5 24.2 23.9 8.1 66 22.2 93.5 31.5 27.5 9.2 72.5 24.4 100 33.7 27.5 9.4 62.8 21.4 78.5 26.7l28.5 9.7c79-25 123.1-39.3 149-47.8 25.8-8.5 53.9-17.9 62.5-21 8.5-3.1 18.2-6.9 21.5-8.5 3.3-1.6 7.3-3.8 9-4.8 1.6-1 3.5-2.9 4.1-4.2 0.7-1.4 0.9-3.8 0.4-6.3-0.4-2.2-1.3-5.9-1.9-8.3-0.6-2.3-1.5-4.4-1.9-4.7-0.4-0.2-13.3-2-28.7-3.9-15.4-1.9-38.2-4.7-50.5-6.1-12.4-1.4-32.2-3.7-44-5.1-11.9-1.4-31.4-3.6-43.5-5-12.1-1.3-31.9-3.5-44-4.9-12.1-1.4-39.8-4.6-61.5-7-21.8-2.5-60-6.7-85-9.5-25.1-2.8-59.5-6.6-76.5-8.5-17.1-1.9-43.9-4.8-59.5-6.5-15.7-1.7-36.4-4-46-5-9.7-1.1-25.9-2.8-36-4-10.2-1.1-27.1-2.9-37.5-4-10.5-1.1-27.8-2.9-38.5-4-10.8-1-24.7-2.1-31-2.4-6.4-0.3-13.1-0.2-15 0.4-1.8 0.5-4.1 1.9-5.1 3.2zm-190.7 21.4c-4.8 3.1-5.3 3.8-6.2 8.4-0.6 2.7-1 7.1-1 9.7-0.1 2.6 0.4 9.5 1 15.3 0.6 5.7 3 26.7 5.5 46.5 2.4 19.8 5.3 45 6.4 56 1.1 11 2.1 23.2 2.1 27.2v7.3c-9 5.9-19.2 11.9-28.5 16.9-9.4 5.1-22.7 12-29.5 15.3-6.9 3.3-25.6 12.5-41.5 20.5-16 8-32 16.4-35.5 18.8-3.6 2.3-8.1 6-9.9 8.1-3.3 3.8-3.4 4-3 11.7 0.3 6.4 0.7 8.1 2.4 9.3 1.6 1.2 3.7 1.4 10.5 0.9 4.6-0.4 15.7-2 24.5-3.6 8.8-1.7 35.3-7.1 59-12 23.6-5 48.4-10.2 55-11.4 6.6-1.3 17.1-3.2 23.5-4.1 9.5-1.4 15.8-1.6 37-1.1 14 0.4 37.8 1.6 53 2.7 15.1 1.1 39.4 2.2 54 2.5 21.1 0.5 27 0.3 29-0.7 1.3-0.8 2.6-2.3 2.8-3.4 0.2-1.3-3.3-6.3-10.4-14.9-5.9-7.2-23.6-29.5-39.4-49.5-15.8-20.1-41-52.5-56.1-72-15.1-19.6-39.1-51-53.4-69.9-14.3-18.9-27.4-35.5-29-36.8-1.7-1.3-4.8-2.6-7-2.8-2.2-0.3-5.4 0-7 0.6-1.7 0.7-5.4 2.7-8.3 4.5zm2309 89.5c-12 5.5-28.3 13.1-36.2 16.9-8 3.7-33.2 15.5-56 26.3-22.9 10.7-52.1 24.5-65 30.7-13 6.1-33.2 15.8-45 21.5-11.9 5.6-25.4 12.1-30 14.3-4.7 2.1-20.5 9.7-35 16.7-14.6 7-29.2 14-32.5 15.5-3.3 1.5-15.9 7.4-28 13.2-12.1 5.8-28.8 13.8-37 17.8-8.3 3.9-38.9 18.6-68 32.5-29.2 13.8-63.2 30.1-75.5 36-12.4 5.9-38.3 18.5-57.5 28-19.3 9.5-38.4 19.5-42.5 22.2-4.2 2.8-8.5 6.1-9.7 7.4-1.2 1.3-2.7 3.6-3.3 5.1-0.6 1.5-1 4.9-1.1 7.5 0 3 0.9 6.5 2.3 9.3 2.1 4.1 2.8 4.6 9.3 6.8 3.8 1.3 19.1 5.5 34 9.3 14.8 3.8 42.3 10.7 61 15.3 18.7 4.6 69.7 17 113.5 27.4 43.7 10.5 85.1 20.3 92 21.7l12.5 2.7c87.5-19.5 131-29.3 153-34.2 22-5 49.9-11.4 62-14.2 12.1-2.8 37-8.7 55.5-13.1 18.4-4.3 34.6-8.4 35.9-9.1 2-0.9 2.7-2.2 3.3-6.1 0.4-2.8 1.4-12.9 2.2-22.5 0.9-9.7 2.4-31.3 3.5-48 1.1-16.8 2.7-42.7 3.5-57.5 0.8-14.9 2.2-41.9 3-60 0.9-18.2 2.2-47.9 3.1-66 0.8-18.2 1.8-44.8 2.2-59.1 0.4-17.4 0.3-26.3-0.4-26.6-0.5-0.3-2.4 0.1-4.2 0.8-1.7 0.8-12.9 5.9-24.9 11.5zm-1198.7 40.8c-6.6 1.8-24.2 6.5-39 10.6-14.9 4-34 9.2-42.5 11.4-8.6 2.3-23.4 6.4-33 9.1-9.7 2.6-27.7 7.6-40 11-12.4 3.4-33.6 9.2-47 12.9-13.5 3.8-30.4 8.4-37.5 10.4-7.2 2-27.2 7.5-44.5 12.2-17.4 4.8-36.7 10.1-43 11.9l-11.5 3.2c-75.2 112.7-102.1 153.4-108.2 163.2-6.2 9.7-14.5 23.1-18.5 29.7-4 6.6-8 14.2-9.1 17l-1.8 5c4.3 6 6.7 8.6 8.1 9.7 2.2 1.7 3.4 1.9 10 1.2 4.1-0.3 13.8-2.1 21.5-3.9 7.7-1.8 25.9-6.6 40.5-10.5 14.5-3.9 35-9.7 45.5-12.7 10.4-3 24.6-7.2 31.5-9.3 6.8-2.1 25.7-7.7 42-12.5 16.2-4.8 40.7-12.1 54.5-16.2 13.7-4.1 27.7-8.4 31-9.6 3.3-1.2 9.8-4.7 14.5-7.8 4.6-3.1 12.7-9.3 18-13.7 5.2-4.3 20.9-18.9 34.9-32.3 14-13.5 45.1-43.8 69-67.4 24-23.6 50.9-50.4 59.9-59.5 9-9.1 20.7-21.3 25.9-27 5.3-5.8 11.3-13.2 13.5-16.5 2.1-3.3 4.3-7.6 4.9-9.5 0.9-2.9 0.7-4.6-0.7-9-1-3.1-2.9-6.8-4.1-8.3-1.4-1.5-3.3-2.7-4.6-2.7-1.2 0-8.1 1.6-15.2 3.4-7.2 1.8-18.4 4.7-25 6.5zm-814.2 79.2c-1.7 2.4-3.8 5.8-4.7 7.6-1.5 2.9-1.5 3.6-0.1 6.3 0.8 1.6 5.6 7.3 10.7 12.6 5.1 5.3 16.5 16 25.3 23.8 8.8 7.7 30.2 26.1 47.5 40.7 17.3 14.7 33.9 28.8 36.8 31.5l5.4 4.9c-7 18.6-13.1 34.1-18 46.5-5 12.3-15.1 37.1-22.6 55-7.4 17.8-16 38.3-19.1 45.5-3 7.1-5.2 13.2-4.8 13.5 0.4 0.4 3 2.2 5.8 4.2 2.7 1.9 7.8 4.9 11.2 6.6 3.4 1.8 7 3.2 8 3.2 1.1 0 4.2-3.6 8.4-9.8 3.7-5.3 15.6-22.3 26.6-37.7 10.9-15.4 25.9-36.4 33.3-46.5 7.4-10.2 17.9-24.2 23.4-31 5.5-6.9 16.5-19.1 24.5-27.1 8-7.9 21.3-20 29.6-26.6 8.2-6.7 26.2-21.3 40-32.4 13.7-11.2 28.3-23.2 32.5-26.8 4.1-3.6 9.6-8.6 12.2-11.1 2.6-2.5 4.8-4.9 4.8-5.3 0-0.4-2.4-1.4-5.3-2.2-2.9-0.8-12.7-3-21.7-4.9-9.1-1.9-27.3-5.5-40.5-8-13.2-2.5-36-6.6-50.5-9.2-14.6-2.5-36.9-6.3-49.5-8.4-12.7-2.2-33.6-5.8-46.5-8-13-2.3-28.5-5-34.5-6-6.1-1.1-20.3-3.5-31.5-5.5-11.3-1.9-21.7-3.5-23-3.5-1.4 0.1-4.4 0.9-6.6 1.9-2.5 1.1-5.2 3.4-7.1 6.2zm-139.8 230.8c-12.7 3.4-38.8 10.7-58 16.2-19.3 5.5-42.1 12.2-50.8 14.9-8.7 2.7-17.4 5.8-19.5 6.8-2.1 1-6 4.8-8.8 8.3-2.8 3.5-8.2 10.6-12 15.9-3.8 5.2-15.2 22.1-25.5 37.5-10.3 15.4-21.7 32.9-25.5 39-3.7 6-8.3 14.1-10.1 18-2.3 4.7-3.4 8.4-3.4 11.5 0 3.2 0.8 5.7 2.9 9 1.6 2.4 4.2 5.7 5.8 7.3 2.5 2.5 3.5 2.8 7.4 2.4 2.4-0.2 9-1.7 14.5-3.2 5.5-1.5 17.4-4.9 26.5-7.6 9-2.6 23.7-6.9 32.5-9.4 8.8-2.6 18.7-5.5 22-6.5 3.3-1 10.7-3.2 16.5-4.9 5.7-1.7 17-4.9 25-7.2 7.9-2.3 19.6-5.7 26-7.5l11.5-3.3c79.8-80.3 108.1-109.3 114.3-116.1 6.2-6.9 12.9-15 14.9-18 2-3.1 3.8-7.1 4.1-9 0.4-2.8-0.1-4.4-2.2-7.3-1.4-2-4.6-5.1-6.9-6.8-3.3-2.3-5.2-3-8.7-2.9-2.5 0.1-19.2 3.8-37 8.4-17.9 4.5-42.9 11.1-55.5 14.5zm652 139c-5.5 3-18.8 10.1-29.5 15.9-10.8 5.7-27.2 14.6-36.5 19.7-9.4 5.1-41.3 22.2-71 38-29.7 15.8-66 35.1-80.5 43-14.6 7.8-34.9 18.7-45 24.2-10.2 5.5-27.3 14.8-38 20.7-10.8 5.9-20.4 11.5-21.5 12.6-2 1.8-2 2-0.3 6.2 0.9 2.3 2.7 5.8 4 7.8 1.3 1.9 3.7 4.1 5.3 4.9 2.4 1.1 4.4 1.1 11 0.2 4.4-0.6 16.7-3.4 27.5-6.1 10.7-2.8 27.1-7.2 36.5-9.9 9.3-2.7 38.6-11 65-18.6 26.4-7.5 59.4-17.1 73.5-21.2 14-4.1 31.1-9.2 38-11.4 9.6-3.1 13.5-4.8 16.9-7.7 2.4-2.1 9.2-9.4 15-16.2 5.8-6.9 18.1-22 27.2-33.5 9.1-11.6 21.2-27.3 27-35 5.8-7.7 11.6-15.6 12.7-17.5 1.6-2.6 2.2-5.2 2.2-9.8 0-3.4-0.7-7.8-1.5-9.7-0.9-2-3-4.4-4.8-5.5-1.8-1.1-4.6-2-6.2-2-1.7 0-6.2 1.3-10 2.8-3.9 1.5-11.5 5.2-17 8.1zm1318 18.7c-25.3 6.3-62.7 15.7-83 20.9-20.4 5.1-66.7 16.8-103 26-36.3 9.2-78 19.8-92.5 23.5-14.6 3.7-42.5 10.9-62 16-19.6 5-47.7 12.3-62.5 16.1-14.9 3.8-32 8.2-38 9.8-6.1 1.6-33.3 8.9-60.5 16.1-27.3 7.2-55.2 14.7-62 16.6-6.9 2-13.3 4-14.3 4.5-1.2 0.6-1.7 2.1-1.7 4.6 0 2.1 0.4 5.5 1 7.5 0.5 2.1 2.6 5.5 4.7 7.7 3.3 3.3 4.5 4 9.8 4.6 3.3 0.4 19.7 0.2 36.5-0.4 16.7-0.6 49.1-1.8 72-2.6 22.8-0.8 79.9-2.6 127-4 47-1.4 99.6-3 117-3.6 17.3-0.5 41.4-1.4 53.5-2 12.1-0.5 28-1.4 35.5-1.9 7.4-0.6 18.5-1.7 24.7-2.5 6.2-0.9 12.7-2.1 14.5-2.9 1.8-0.7 10-6.2 18.3-12.1 8.2-6 19.2-14.1 24.5-18.1 5.2-4.1 16.7-12.8 25.5-19.5 8.8-6.8 20.9-16.1 27-20.9 6-4.8 19.9-15.6 30.8-24.1 11-8.5 24.5-19 30.2-23.4 5.6-4.4 15.3-11.9 21.5-16.5 6.1-4.7 14-10.9 17.6-13.8 5.9-4.8 6.3-5.4 5.5-8-0.5-1.5-1.8-5-3.1-7.7-1.2-2.8-3.3-6.5-4.6-8.3-1.3-1.8-3.8-3.9-5.4-4.7-1.7-0.9-3.8-1.5-4.8-1.4-1 0-13.4 3-27.7 6.5-14.3 3.6-46.7 11.7-72 18zm-684-12.5c-13.2 3.3-31.9 8-41.5 10.5-9.7 2.5-29.9 7.8-45 11.9-15.2 4-35 9.4-44 11.8-9.1 2.5-24.9 6.7-35 9.5-10.2 2.8-29.6 8-43 11.7-13.5 3.7-27 7.3-30 8.1-3.1 0.8-17 4.5-31 8.3-25.3 6.8-25.7 6.9-44.5 8-10.5 0.6-30.7 1.7-45 2.6-14.3 0.8-37.1 2.1-50.5 3-13.5 0.8-38 2.4-54.5 3.5-16.5 1.1-37.2 2.5-46 3.1-8.8 0.6-19.1 1.4-22.7 1.7l-6.7 0.7c-36.8 50.3-55.6 76.2-65.6 90-10 13.7-26 35.5-35.6 48.5-9.6 12.9-24.4 32.6-32.9 43.7-8.6 11.2-17.5 23.1-19.8 26.5-2.4 3.5-4.2 6.9-4 7.8 0.3 1.3 4.4 1.4 30.3 1.3 16.5 0 41.4-0.8 55.5-1.7 14-0.9 29.7-1.9 35-2.2 5.2-0.3 15.5-0.9 23-1.5 7.4-0.5 27.4-1.8 44.5-3 17-1.1 44-2.9 60-4 15.9-1.1 35.9-2.5 44.5-3.1l15.5-1.1c31-19.7 53.5-34 70-44.4 16.5-10.5 36-22.9 43.5-27.5 7.4-4.7 23.6-14.9 36-22.8 12.3-7.9 30.8-19.6 41-26.1 10.1-6.4 27.7-17.6 39-24.7 11.2-7.2 31.7-20.2 45.5-28.8 13.7-8.7 47.2-30 74.5-47.3 27.2-17.3 56.9-36.2 66-42 9-5.7 17.9-11.6 19.8-13 2.6-2.1 3.2-3.3 3.2-6.1-0.1-2-0.9-5.3-1.9-7.5-1-2.2-3-5.5-4.5-7.3-2-2.4-3.9-3.5-7.6-4.2-2.8-0.6-5.6-1-6.3-0.9-0.7 0-2.1 0.3-3.2 0.5-1.1 0.3-12.8 3.2-26 6.5zm-1041.5 66.9c-8.6 1.2-20.5 3-26.5 4.1-6.1 1-15.3 2.8-20.5 3.9-5.3 1.1-13.4 3.2-18 4.6-4.7 1.4-10.6 3.2-13 4.1-2.5 0.9-11.7 5-20.5 9.2-8.8 4.2-19.6 10-24 12.8-4.4 2.8-10.3 7.5-13.1 10.4-2.8 3-6.7 8.1-8.6 11.4-1.9 3.3-5.1 9.6-7 14-2 4.4-4.8 11.2-6.2 15.2-1.5 4-2.4 7.7-2.1 8.3 0.2 0.5 2.4 1.8 4.7 2.8 2.3 1 8.3 2.8 13.3 4 4.9 1.1 15 3 22.5 4.1 7.4 1.1 24.7 3.4 38.5 5.1 13.7 1.6 28.4 3.5 32.7 4l7.8 1c52.1-50.8 74.4-73.2 83.2-82.5 8.8-9.4 16.7-18.4 17.5-20 1.4-2.8 1.4-3.4-0.5-7.5-1.2-2.5-3.1-5.8-4.2-7.3-1.1-1.5-3.4-3.4-5-4.2-1.7-0.9-5.6-1.7-8.8-2-3.2-0.2-10.5 0.2-16.2 1-5.8 0.8-17.5 2.4-26 3.5zm906.5 112.6c-5 2.8-12.9 7.1-17.5 9.6-4.7 2.5-14.4 7.5-21.5 11.3-7.2 3.7-17.5 9.1-23 12-5.5 2.9-24.4 12.7-42 21.7-17.6 9.1-44.2 22.7-59 30.3-14.9 7.5-32.9 16.8-40 20.5-7.2 3.7-28.2 14.4-46.8 23.8l-33.7 17.2c-64.8 6.9-95.9 10.3-111 12-15.2 1.6-33.8 3.6-41.5 4.4-7.7 0.8-21.9 2.4-31.5 3.5-9.7 1.1-23.4 2.7-30.5 3.6-7.2 0.8-21.8 2.6-32.5 4.1-10.8 1.4-24.6 3.4-30.8 4.5l-11.2 1.9c-23.7 24.4-38.3 39.6-47.6 49.5-9.4 9.9-26.9 28.6-39 41.5-12.1 12.9-37.1 39.9-55.6 60-18.5 20.1-43.9 47.7-56.5 61.5-12.5 13.7-33.9 37.1-47.3 52-13.5 14.8-29.5 32.6-35.6 39.5-6.1 6.8-14.9 17.2-19.5 23-4.7 5.7-9.9 12.7-11.7 15.5-1.8 2.7-3.5 6.5-3.9 8.5-0.5 2.5-0.2 4.3 1.2 6.6 1.1 1.7 3.5 4.4 5.4 6 2.3 1.9 4.4 2.8 6.5 2.7 1.7-0.1 10.3-2.7 19.1-5.8 8.8-3.1 25.2-9.1 36.5-13.2 11.2-4.2 35.8-13.3 54.5-20.3 18.7-7.1 49.7-18.8 69-26 19.2-7.3 41.5-15.7 49.5-18.7 7.9-3.1 18.3-7 23-8.8 4.6-1.8 20.8-8 36-13.8 15.1-5.8 48.4-18.5 74-28.3 25.5-9.7 64.2-24.4 86-32.6 21.7-8.2 48.2-18.4 59-22.5 10.7-4.2 22.2-8.9 25.5-10.6 3.8-1.9 11.8-8.1 22.4-17.6 9-8 21-18.7 26.5-23.7 5.5-4.9 13.4-11.9 17.6-15.5 4.1-3.7 21-18.5 37.5-33 16.5-14.5 38.9-34.3 49.9-43.9 10.9-9.7 23.8-20.9 28.5-24.9 4.7-4.1 15.5-13.6 24.1-21.2 8.5-7.5 29.2-25.8 46-40.6 16.8-14.7 42.9-37.6 57.9-50.8 15.1-13.2 35.6-31.3 45.5-40.1 9.9-8.9 18.7-17.5 19.4-19 0.7-1.6 1.1-4.3 0.7-5.9-0.3-1.7-2.4-6-4.6-9.5-2.3-3.6-5.1-7.6-6.3-8.8-1.2-1.3-2.4-2.3-2.6-2.3-0.3 0.1-2.6 1.3-5 2.9-2.5 1.5-8.6 5-13.5 7.8zm-1190.9 89.9c-1.6 1.1-3.8 3.7-4.8 5.7-1 2.1-1.7 5.2-1.6 7 0.2 2.6 1.1 3.9 4.8 6.3 2.4 1.6 9.4 5.2 15.5 7.8 6 2.7 14.3 6.2 18.5 7.7 4.1 1.6 13.5 5.2 21 8 7.4 2.8 24.3 9 37.5 13.6 13.2 4.7 39.3 13.7 58 20.1 18.7 6.3 43.6 14.6 55.5 18.4 11.8 3.8 25.1 7.9 29.5 9l8 2.1c17-4.2 28.9-7.4 37.5-9.9 8.5-2.4 25.1-7.4 37-11 11.8-3.6 25.7-8.2 31-10.1 5.2-1.9 11.3-4.3 13.5-5.4 2.2-1.1 5-3 6.2-4.2 1.3-1.2 2.6-3.5 2.9-5.1 0.3-1.7 0.3-7.2 0-12.3-0.6-8.3-0.9-9.3-2.9-10.2-1.2-0.5-16.6-2.5-34.2-4.5-17.6-1.9-60.8-6.6-96-10.5-35.2-3.9-79.8-8.9-99-11.1-19.3-2.1-42.9-4.8-52.5-5.9-9.7-1.1-30.4-3.6-46-5.5-15.7-2-29.2-3.5-30-3.4-0.9 0-2.7 0.4-4 0.8-1.4 0.4-3.8 1.6-5.4 2.6z"/>
</svg>