{
	"asset":{
		"generator":"Khronos glTF Blender I/O v3.6.27",
		"version":"2.0"
	},
	"extensionsUsed":[
		"KHR_materials_emissive_strength",
		"KHR_materials_clearcoat",
		"KHR_materials_transmission",
		"KHR_materials_ior"
	],
	"scene":0,
	"scenes":[
		{
			"name":"Scene",
			"nodes":[
				0,
				1,
				2,
				3,
				4,
				5,
				6
			]
		}
	],
	"nodes":[
		{
			"mesh":0,
			"name":"Path 0"
		},
		{
			"mesh":1,
			"name":"Path 1",
			"rotation":[
				0.6596590280532837,
				0.254656583070755,
				0.254656583070755,
				0.6596590280532837
			],
			"translation":[
				1.2561135292053223,
				0.3242066502571106,
				0
			]
		},
		{
			"mesh":2,
			"name":"Path 2"
		},
		{
			"mesh":3,
			"name":"Path 0.001"
		},
		{
			"mesh":4,
			"name":"Path 1.001",
			"rotation":[
				0.6596590280532837,
				0.254656583070755,
				0.254656583070755,
				0.6596590280532837
			],
			"translation":[
				1.2561135292053223,
				0.3242066502571106,
				-0.022078052163124084
			]
		},
		{
			"mesh":5,
			"name":"Path 2.001"
		},
		{
			"mesh":6,
			"name":"Path 1.002",
			"rotation":[
				0.6596590280532837,
				0.254656583070755,
				0.254656583070755,
				0.6596590280532837
			],
			"translation":[
				1.2561135292053223,
				0.3242066502571106,
				0.020525246858596802
			]
		}
	],
	"materials":[
		{
			"doubleSided":true,
			"name":"SVGMat.001",
			"pbrMetallicRoughness":{
				"baseColorFactor":[
					0,
					0,
					0,
					1
				],
				"metallicFactor":0,
				"roughnessFactor":0.4000000059604645
			}
		},
		{
			"doubleSided":true,
			"emissiveFactor":[
				0.49731338024139404,
				0.8980759382247925,
				1
			],
			"extensions":{
				"KHR_materials_emissive_strength":{
					"emissiveStrength":15
				}
			},
			"name":"Material.001",
			"pbrMetallicRoughness":{
				"baseColorFactor":[
					0,
					0,
					0,
					1
				]
			}
		},
		{
			"doubleSided":true,
			"name":"SVGMat.002",
			"pbrMetallicRoughness":{
				"baseColorFactor":[
					0,
					0,
					0,
					1
				],
				"metallicFactor":0,
				"roughnessFactor":0.4000000059604645
			}
		},
		{
			"doubleSided":true,
			"extensions":{
				"KHR_materials_clearcoat":{
					"clearcoatFactor":0.1376146674156189,
					"clearcoatRoughnessFactor":0.21348623931407928
				},
				"KHR_materials_transmission":{
					"transmissionFactor":0.11926605552434921
				},
				"KHR_materials_ior":{
					"ior":1.399999976158142
				}
			},
			"name":"Material.002",
			"pbrMetallicRoughness":{
				"baseColorFactor":[
					0.2186516970396042,
					0.8127633333206177,
					1,
					0.8348623514175415
				],
				"metallicFactor":0,
				"roughnessFactor":0.5
			}
		}
	],
	"meshes":[
		{
			"name":"Path 0.001",
			"primitives":[
				{
					"attributes":{
						"POSITION":0,
						"NORMAL":1,
						"TEXCOORD_0":2
					},
					"indices":3,
					"material":0
				}
			]
		},
		{
			"name":"Path 1.001",
			"primitives":[
				{
					"attributes":{
						"POSITION":4,
						"NORMAL":5,
						"TEXCOORD_0":6
					},
					"indices":7,
					"material":1
				}
			]
		},
		{
			"name":"Path 2.001",
			"primitives":[
				{
					"attributes":{
						"POSITION":8,
						"NORMAL":9,
						"TEXCOORD_0":10
					},
					"indices":11,
					"material":0
				}
			]
		},
		{
			"name":"Path 0.002",
			"primitives":[
				{
					"attributes":{
						"POSITION":12,
						"NORMAL":13,
						"TEXCOORD_0":14
					},
					"indices":3,
					"material":2
				}
			]
		},
		{
			"name":"Path 1.002",
			"primitives":[
				{
					"attributes":{
						"POSITION":15,
						"NORMAL":16,
						"TEXCOORD_0":17
					},
					"indices":18,
					"material":3
				}
			]
		},
		{
			"name":"Path 2.002",
			"primitives":[
				{
					"attributes":{
						"POSITION":19,
						"NORMAL":20,
						"TEXCOORD_0":21
					},
					"indices":11,
					"material":2
				}
			]
		},
		{
			"name":"Path 1.003",
			"primitives":[
				{
					"attributes":{
						"POSITION":22,
						"NORMAL":23,
						"TEXCOORD_0":24
					},
					"indices":18,
					"material":3
				}
			]
		}
	],
	"accessors":[
		{
			"bufferView":0,
			"componentType":5126,
			"count":5,
			"max":[
				1.411139965057373,
				0,
				0
			],
			"min":[
				0,
				0,
				-1.410841941833496
			],
			"type":"VEC3"
		},
		{
			"bufferView":1,
			"componentType":5126,
			"count":5,
			"type":"VEC3"
		},
		{
			"bufferView":2,
			"componentType":5126,
			"count":5,
			"type":"VEC2"
		},
		{
			"bufferView":3,
			"componentType":5123,
			"count":9,
			"type":"SCALAR"
		},
		{
			"bufferView":4,
			"componentType":5126,
			"count":74012,
			"max":[
				1.3686646223068237,
				0.014999999664723873,
				-0.2160157710313797
			],
			"min":[
				0.04258820414543152,
				-0.014999999664723873,
				-1.1944606304168701
			],
			"type":"VEC3"
		},
		{
			"bufferView":5,
			"componentType":5126,
			"count":74012,
			"type":"VEC3"
		},
		{
			"bufferView":6,
			"componentType":5126,
			"count":74012,
			"type":"VEC2"
		},
		{
			"bufferView":7,
			"componentType":5125,
			"count":220992,
			"type":"SCALAR"
		},
		{
			"bufferView":8,
			"componentType":5126,
			"count":420,
			"max":[
				1.06217360496521,
				0,
				-0.5984549522399902
			],
			"min":[
				0.9298796653747559,
				0,
				-0.891545832157135
			],
			"type":"VEC3"
		},
		{
			"bufferView":9,
			"componentType":5126,
			"count":420,
			"type":"VEC3"
		},
		{
			"bufferView":10,
			"componentType":5126,
			"count":420,
			"type":"VEC2"
		},
		{
			"bufferView":11,
			"componentType":5123,
			"count":1224,
			"type":"SCALAR"
		},
		{
			"bufferView":12,
			"componentType":5126,
			"count":5,
			"max":[
				1.411139965057373,
				0,
				0
			],
			"min":[
				0,
				0,
				-1.410841941833496
			],
			"type":"VEC3"
		},
		{
			"bufferView":13,
			"componentType":5126,
			"count":5,
			"type":"VEC3"
		},
		{
			"bufferView":14,
			"componentType":5126,
			"count":5,
			"type":"VEC2"
		},
		{
			"bufferView":15,
			"componentType":5126,
			"count":73952,
			"max":[
				1.3686646223068237,
				0.004999999888241291,
				-0.2160157710313797
			],
			"min":[
				0.04258820414543152,
				-0.004999999888241291,
				-1.1944606304168701
			],
			"type":"VEC3"
		},
		{
			"bufferView":16,
			"componentType":5126,
			"count":73952,
			"type":"VEC3"
		},
		{
			"bufferView":17,
			"componentType":5126,
			"count":73952,
			"type":"VEC2"
		},
		{
			"bufferView":18,
			"componentType":5125,
			"count":220992,
			"type":"SCALAR"
		},
		{
			"bufferView":19,
			"componentType":5126,
			"count":420,
			"max":[
				1.06217360496521,
				0,
				-0.5984549522399902
			],
			"min":[
				0.9298796653747559,
				0,
				-0.891545832157135
			],
			"type":"VEC3"
		},
		{
			"bufferView":20,
			"componentType":5126,
			"count":420,
			"type":"VEC3"
		},
		{
			"bufferView":21,
			"componentType":5126,
			"count":420,
			"type":"VEC2"
		},
		{
			"bufferView":22,
			"componentType":5126,
			"count":73952,
			"max":[
				1.3686646223068237,
				0.004999999888241291,
				-0.2160157710313797
			],
			"min":[
				0.04258820414543152,
				-0.004999999888241291,
				-1.1944606304168701
			],
			"type":"VEC3"
		},
		{
			"bufferView":23,
			"componentType":5126,
			"count":73952,
			"type":"VEC3"
		},
		{
			"bufferView":24,
			"componentType":5126,
			"count":73952,
			"type":"VEC2"
		}
	],
	"bufferViews":[
		{
			"buffer":0,
			"byteLength":60,
			"byteOffset":0,
			"target":34962
		},
		{
			"buffer":0,
			"byteLength":60,
			"byteOffset":60,
			"target":34962
		},
		{
			"buffer":0,
			"byteLength":40,
			"byteOffset":120,
			"target":34962
		},
		{
			"buffer":0,
			"byteLength":18,
			"byteOffset":160,
			"target":34963
		},
		{
			"buffer":0,
			"byteLength":888144,
			"byteOffset":180,
			"target":34962
		},
		{
			"buffer":0,
			"byteLength":888144,
			"byteOffset":888324,
			"target":34962
		},
		{
			"buffer":0,
			"byteLength":592096,
			"byteOffset":1776468,
			"target":34962
		},
		{
			"buffer":0,
			"byteLength":883968,
			"byteOffset":2368564,
			"target":34963
		},
		{
			"buffer":0,
			"byteLength":5040,
			"byteOffset":3252532,
			"target":34962
		},
		{
			"buffer":0,
			"byteLength":5040,
			"byteOffset":3257572,
			"target":34962
		},
		{
			"buffer":0,
			"byteLength":3360,
			"byteOffset":3262612,
			"target":34962
		},
		{
			"buffer":0,
			"byteLength":2448,
			"byteOffset":3265972,
			"target":34963
		},
		{
			"buffer":0,
			"byteLength":60,
			"byteOffset":3268420,
			"target":34962
		},
		{
			"buffer":0,
			"byteLength":60,
			"byteOffset":3268480,
			"target":34962
		},
		{
			"buffer":0,
			"byteLength":40,
			"byteOffset":3268540,
			"target":34962
		},
		{
			"buffer":0,
			"byteLength":887424,
			"byteOffset":3268580,
			"target":34962
		},
		{
			"buffer":0,
			"byteLength":887424,
			"byteOffset":4156004,
			"target":34962
		},
		{
			"buffer":0,
			"byteLength":591616,
			"byteOffset":5043428,
			"target":34962
		},
		{
			"buffer":0,
			"byteLength":883968,
			"byteOffset":5635044,
			"target":34963
		},
		{
			"buffer":0,
			"byteLength":5040,
			"byteOffset":6519012,
			"target":34962
		},
		{
			"buffer":0,
			"byteLength":5040,
			"byteOffset":6524052,
			"target":34962
		},
		{
			"buffer":0,
			"byteLength":3360,
			"byteOffset":6529092,
			"target":34962
		},
		{
			"buffer":0,
			"byteLength":887424,
			"byteOffset":6532452,
			"target":34962
		},
		{
			"buffer":0,
			"byteLength":887424,
			"byteOffset":7419876,
			"target":34962
		},
		{
			"buffer":0,
			"byteLength":591616,
			"byteOffset":8307300,
			"target":34962
		}
	],
	"buffers":[
		{
			"byteLength":8898916,
			"uri":"remisallogo.bin"
		}
	]
}
